<svg xmlns="http://www.w3.org/2000/svg" width="60" height="60" viewBox="0 0 60 60"><g fill-rule="evenodd" clip-rule="evenodd" fill="#EE7B07"><path d="M48.963 32.29c0 4.345-.013 8.693.015 13.04.005.62-.16.968-.718 1.283-7.73 4.374-15.45 8.772-23.163 13.18-.447.257-.772.287-1.242.018-7.733-4.427-15.48-8.84-23.232-13.237C.163 46.313 0 46.02 0 45.49c.016-8.837.016-17.675 0-26.512 0-.493.148-.767.587-1.016 7.778-4.41 15.546-8.837 23.31-13.274.434-.25.76-.22 1.18.02 7.763 4.436 15.53 8.864 23.308 13.272.48.272.592.587.59 1.097-.02 4.403-.012 8.808-.012 13.212zm-29.377 7.867c.242-.568.507-1.104.696-1.665.176-.52.47-.67 1.016-.66 1.9.035 3.8.013 5.7.013 1.54 0 1.51.016 2.103 1.427.314.744.15 1-.63.884-.665-.1-.903.144-.876.847.055 1.465.028 2.936.008 4.4-.005.44.13.604.587.605 3.884.008 7.77.033 11.652.068.453.005.606-.156.6-.602-.022-1.238-.01-2.477-.01-3.713 0-1.685 0-1.703-1.69-1.6-.597.037-.93-.12-1.162-.72-.962-2.492-1.978-4.964-2.977-7.44-2.072-5.144-4.146-10.286-6.225-15.427-.13-.325-.167-.714-.708-.71-3.483.02-6.965.016-10.447.004-.417-.002-.553.147-.542.553.023.834.007 1.67.007 2.503 0 1.918 0 1.918 1.932 1.928.98.005.986.008.627.933-2.3 5.918-4.606 11.833-6.89 17.756-.194.5-.42.744-.985.7-.63-.05-1.268.017-1.9-.02-.5-.03-.638.155-.627.64.037 1.553.054 3.106.032 4.66-.008.53.213.603.664.6 3.654-.028 7.31-.048 10.964-.037.555.002.67-.19.66-.698-.024-1.15.01-2.302.023-3.453.02-1.598.02-1.598-1.6-1.773z"/><path d="M24.702 25.392c.713 2.167 1.424 4.337 2.145 6.502.132.398-.023.512-.398.51-1.29-.006-2.583-.006-3.87 0-.36.002-.46-.14-.343-.474.755-2.184 1.508-4.37 2.26-6.552.067.006.135.01.204.014z"/></g></svg>