<svg xmlns="http://www.w3.org/2000/svg" width="11" height="36.969" viewBox="0 -21.531 11 36.969"><path fill="#FFF" d="M5.797 15.002c-.162.16-.39.195-.51.076L.004 9.792c-.12-.12-.085-.347.076-.508.162-.162.39-.197.508-.076l5.286 5.285c.12.122.084.347-.077.51z"/><path fill="#FFF" d="M5.23 15.016c.162.16.39.195.508.078l5.245-5.246c.12-.118.084-.346-.078-.508-.16-.16-.39-.195-.506-.077l-5.25 5.245c-.118.118-.083.346.078.508z"/><path fill="#FFF" d="M5.517 15.12c.228-.002.413-.23.414-.514v-35.393c0-.282-.184-.513-.413-.512-.228 0-.413.23-.413.514v35.393c0 .284.186.512.414.514z"/></svg>