<svg width="54" height="45" viewBox="0 0 54 45" fill="none" xmlns="http://www.w3.org/2000/svg">
<path d="M1.95651 19.9844H13.6956V44.8413H1.95651C1.43761 44.8413 0.939964 44.6399 0.573048 44.2813C0.206131 43.9227 0 43.4363 0 42.9292V21.8964C0 21.3893 0.206131 20.903 0.573048 20.5444C0.939964 20.1858 1.43761 19.9844 1.95651 19.9844Z" fill="white"/>
<path d="M16.9561 19.9844L26.7386 0.86377C28.8142 0.86377 30.8048 1.66957 32.2725 3.10389C33.7402 4.53822 34.5647 6.48359 34.5647 8.51204V14.2482H49.7033C50.2581 14.2469 50.8068 14.3616 51.3125 14.5847C51.8182 14.8077 52.2693 15.134 52.6353 15.5415C53.0013 15.949 53.2739 16.4284 53.4346 16.9473C53.5954 17.4663 53.6407 18.0129 53.5674 18.5504L50.6326 41.4952C50.5139 42.4163 50.0563 43.2637 49.3453 43.8794C48.6343 44.4951 47.7184 44.837 46.7685 44.8413H16.9561" fill="white"/>
<circle cx="6.68458" cy="38.6597" r="1.79347" fill="#0047FF"/>
</svg>
