<svg width="62" height="54" viewBox="0 0 62 54" fill="none" xmlns="http://www.w3.org/2000/svg">
<path d="M11.4089 24.2295L9.96533 24.1712C9.98221 23.7455 10.4608 13.6842 16.6853 7.67188L17.6893 8.71037C11.876 14.3254 11.4127 24.1313 11.4089 24.2295Z" fill="white"/>
<path d="M53.5637 24.2295L55.0072 24.1712C54.9896 23.7455 54.5117 13.6842 48.2865 7.67188L47.2832 8.71037C53.0965 14.3254 53.5598 24.1313 53.5637 24.2295Z" fill="white"/>
<path d="M50.1307 10.6516C49.6222 11.2146 48.7639 11.0858 48.1809 10.4285C39.4368 0.534394 25.7583 0.534394 17.0103 10.4285C16.4273 11.0858 15.569 11.2146 15.0605 10.6516C14.5527 10.0917 14.6455 8.97579 15.3044 8.23105C25.0097 -2.74368 40.1815 -2.74368 49.8868 8.23105C50.5457 8.97579 50.6385 10.0917 50.1307 10.6516Z" fill="white"/>
<path d="M55.3167 17.3361C55.5468 17.2701 55.7339 17.3622 55.8613 17.5616L57.9698 20.7906C58.5835 21.76 58.9716 22.8844 58.9716 24.0326V26.9694C58.9716 26.9694 61.8142 29.176 61.8142 32.3858C61.8142 35.5956 59.8452 39.9291 57.357 40.6515C57.2227 40.9476 57.0893 41.1938 56.9957 41.3986C56.7234 41.9984 56.1773 42.342 55.5268 42.2331L55.0405 42.1364V17.8469C55.0405 17.6107 55.0896 17.402 55.3167 17.3361Z" fill="white"/>
<path d="M52.3922 21.3652H52.2833C50.8206 21.3652 49.6348 22.551 49.6348 24.0136V42.3038C49.6348 43.7665 50.8206 44.9522 52.2833 44.9522H52.3922C53.855 44.9522 55.0408 43.7665 55.0408 42.3038V24.0136C55.0408 22.551 53.855 21.3652 52.3922 21.3652Z" fill="white"/>
<path d="M28.4858 52.8488C28.0777 52.8388 18.384 52.5642 9.81237 49.0637C6.10531 47.5497 3.45674 44.333 2.15279 39.761C1.18479 36.3633 1.29371 33.4418 1.29831 33.3184L2.74187 33.3782L2.02009 33.3483L2.74187 33.3774C2.72428 35.414 2.99754 37.4427 3.55339 39.4021C4.75073 43.5706 7.04032 46.3708 10.3585 47.7261C18.6777 51.1238 28.4236 51.4015 28.5211 51.4076L28.4858 52.8488Z" fill="white"/>
<path d="M35.66 50.0308H29.8666C28.8427 50.0308 28.0127 50.8607 28.0127 51.8846V52.1085C28.0127 53.1323 28.8427 53.9623 29.8666 53.9623H35.66C36.6839 53.9623 37.5139 53.1323 37.5139 52.1085V51.8846C37.5139 50.8607 36.6839 50.0308 35.66 50.0308Z" fill="white"/>
<path d="M4.71725 31.5215H1.83551C0.821785 31.5215 0 32.3432 0 33.3569V33.6176C0 34.6313 0.821785 35.453 1.83551 35.453H4.71725C5.73097 35.453 6.55276 34.6313 6.55276 33.6176V33.3569C6.55276 32.3432 5.73097 31.5215 4.71725 31.5215Z" fill="white"/>
<path d="M9.65573 17.5766C9.54843 17.5446 9.4335 17.5494 9.32925 17.5903C9.225 17.6311 9.13742 17.7057 9.08046 17.8021L7.01868 21.0311C6.39819 21.9995 6.06617 23.1245 6.06142 24.2746V27.2114C6.06142 27.2114 3.1582 29.4134 3.1582 32.6263C3.1582 35.8392 5.09649 40.1696 7.58474 40.8921C7.71898 41.1873 7.8371 41.4343 7.93068 41.6391C8.20374 42.2389 8.80279 42.5817 9.45247 42.4736L9.98939 42.3762V18.0874C9.99246 17.8504 9.88277 17.6426 9.65573 17.5766Z" fill="white"/>
<path d="M12.7497 21.6934H12.6408C11.178 21.6934 9.99219 22.8791 9.99219 24.3417V42.632C9.99219 44.0946 11.178 45.2803 12.6408 45.2803H12.7497C14.2124 45.2803 15.3982 44.0946 15.3982 42.632V24.3417C15.3982 22.8791 14.2124 21.6934 12.7497 21.6934Z" fill="white"/>
</svg>
