<svg width="72" height="69" viewBox="0 0 72 69" fill="none" xmlns="http://www.w3.org/2000/svg">
<path d="M15.2915 63.3656L19.7147 60.0086L24.7497 62.3934L22.8674 57.2349L26.7369 53.2774L21.1541 53.449L18.5084 48.6165L16.9407 53.8836L11.4337 54.8558L16.055 57.944L15.2915 63.3656ZM35.8046 68.4097L37.92 63.3313L43.4912 62.9252L39.2312 59.3795L40.5657 54.0495L35.8104 56.9375L31.0551 54.0495L32.3896 59.3795L28.118 62.9252L33.6892 63.3313L35.8046 68.4097ZM19.3301 30.0072C21.9175 29.0578 25.2217 27.8454 27.5994 26.3985C30.3267 28.8805 32.0983 31.7057 32.2381 35.137H39.3944C39.5342 31.7057 41.3058 28.8805 44.0331 26.3985C46.4108 27.8454 49.715 29.0521 52.3025 30.0072C59.9249 32.8037 56.2011 37.9107 51.7547 42.2113C47.6754 46.1516 42.0401 48.5879 35.8104 48.5879C29.5808 48.5879 23.9513 46.1574 19.8662 42.2113C15.4839 37.9736 11.6551 32.8209 19.3301 30.0072ZM30.1985 22.91C30.315 21.9721 27.4945 18.4206 26.9817 16.7107C25.8744 14.995 25.484 12.2499 26.6903 10.4313C27.174 9.71072 26.9642 8.41824 26.9642 7.42887C26.9642 -2.47057 44.6392 -2.48201 44.6392 7.42887C44.6392 8.68131 44.3478 9.63637 45.0413 10.62C46.201 12.2671 45.6007 15.1894 44.6217 16.7221C43.9982 18.5121 41.0378 21.9034 41.2475 22.9214C41.4224 27.9941 30.1577 27.8282 30.1985 22.91ZM71.6092 48.3534L68.1884 44.0185L70.6185 39.0774L65.3562 40.9303L61.3235 37.1329L61.4984 42.6116L56.5741 45.208L61.9413 46.7407L62.9319 52.1451L66.073 47.61L71.6092 48.3534ZM56.3176 63.3656L55.5659 57.9269L60.1872 54.8387L54.6859 53.8607L53.1241 48.5936L50.4784 53.4261L44.8898 53.2545L48.7593 57.212L46.8595 62.3819L51.8945 59.9971L56.3176 63.3656ZM0 48.3477L5.54202 47.61L8.68891 52.1451L9.68542 46.7464L15.0526 45.2137L10.1283 42.6174L10.3031 37.1386L6.26464 40.936L0.990687 39.0774L3.42078 44.0185L0 48.3477Z" fill="white"/>
</svg>
