<svg width="20" height="20" fill="none" xmlns="http://www.w3.org/2000/svg"><path d="M8.35 19.9A10.09 10.09 0 0 1 0 10C0 4.5 4.5 0 10 0s10 4.5 10 10c0 4.95-3.6 9.05-8.35 9.9l-.55-.45H8.9l-.55.45Z" fill="url(#a)"/><path d="m13.9 12.8.45-2.8H11.7V8.05c0-.8.3-1.4 1.5-1.4h1.3V4.1c-.7-.1-1.5-.2-2.2-.2-2.3 0-3.9 1.4-3.9 3.9V10H5.9v2.8h2.5v7.05a9.2 9.2 0 0 0 3.3 0V12.8h2.2Z" fill="#fff"/><defs><linearGradient id="a" x1="10" y1="19.3" x2="10" y2="0" gradientUnits="userSpaceOnUse"><stop stop-color="#0062E0"/><stop offset="1" stop-color="#19AFFF"/></linearGradient></defs></svg>