<svg width="60" height="60" viewBox="0 0 60 60" fill="none" xmlns="http://www.w3.org/2000/svg">
<path d="M5.54147 19.5474C8.27557 14.7574 11.0093 9.96716 13.7426 5.17671C14.2409 4.30262 15.6419 3.43314 16.4464 3.43314H42.3915C44.3888 3.43314 46.6333 5.40646 47.2948 6.89521C48.5792 9.30815 49.9765 11.6612 51.326 14.0394C47.3132 14.0678 43.3006 14.0962 39.2881 14.1246C33.3077 14.0988 27.3272 14.0796 21.3469 14.0358C20.8014 14.0318 20.6328 14.3657 20.4215 14.7328C17.5015 19.8067 14.5799 24.8796 11.6565 29.9515C11.4301 29.6021 11.1889 29.2613 10.9796 28.902C9.1636 25.7857 7.3509 22.6675 5.54147 19.5474Z" fill="#0073BC"/>
<path d="M39.288 14.1246C43.3006 14.0962 47.3132 14.0678 51.326 14.0394C54.0456 18.7452 56.7775 23.444 59.4763 28.1615C59.8243 28.7422 60.0055 29.4075 59.9999 30.0844C59.9943 30.7613 59.8021 31.4236 59.4446 31.9984C55.1247 39.5299 50.7946 47.0557 46.4544 54.5755C46.1374 55.1749 45.6625 55.6762 45.0812 56.0251C44.4999 56.3741 43.8342 56.5575 43.1562 56.5555C39.8207 56.5885 36.4844 56.5408 33.1489 56.5258C33.3299 56.1905 33.5038 55.8515 33.6917 55.5203C35.4797 52.3677 37.269 49.2159 39.0597 46.0648C39.2799 45.7545 39.5265 45.4594 39.7163 45.1316C42.4432 40.4224 45.1452 35.6987 47.9015 31.0068C48.1057 30.7198 48.2147 30.3759 48.2131 30.0236C48.2114 29.6714 48.0992 29.3285 47.8922 29.0434C44.9985 24.0854 42.1506 19.1007 39.288 14.1246Z" fill="#EA4334"/>
<path d="M39.0597 46.0648C37.27 49.2164 35.4806 52.3683 33.6916 55.5203C33.5038 55.8515 33.3298 56.1904 33.1489 56.5258C27.6993 56.54 22.25 56.5795 16.8012 56.5507C16.1412 56.5509 15.4937 56.3708 14.9287 56.0298C14.3636 55.6889 13.9024 55.2001 13.5948 54.6162C9.23046 47.0548 4.87709 39.4871 0.534677 31.9131C0.195911 31.3708 0.0112348 30.7465 0.000496585 30.1072C-0.0102416 29.4678 0.153354 28.8377 0.473716 28.2843C2.12893 25.3529 3.84797 22.4574 5.54139 19.5474C7.35331 22.666 9.16601 25.7842 10.9795 28.902C11.1888 29.2613 11.43 29.6021 11.6568 29.9516C11.6804 30.0637 11.7157 30.1729 11.7622 30.2775C14.6647 35.32 17.5799 40.3551 20.4625 45.4088C20.5806 45.6232 20.7629 45.7951 20.9838 45.9004C21.2047 46.0058 21.453 46.0393 21.6939 45.9961C23.8798 45.9828 26.0658 45.9816 28.2519 45.9926C31.8545 46.0101 35.4571 46.0341 39.0597 46.0648Z" fill="#F7BB15"/>
<path d="M39.0597 46.0648C35.4571 46.04 31.8545 46.016 28.2519 45.9926C26.0659 45.9819 23.88 45.9831 21.6939 45.9961C21.4531 46.0392 21.2047 46.0058 20.9838 45.9004C20.7629 45.7951 20.5806 45.6231 20.4626 45.4088C17.5799 40.3551 14.6647 35.32 11.7622 30.2775C11.7157 30.1729 11.6804 30.0637 11.6568 29.9517C14.5786 24.8788 17.5002 19.8059 20.4215 14.7328C20.6327 14.3657 20.8014 14.0317 21.3468 14.0357C27.3272 14.0796 33.3077 14.0987 39.288 14.1246C42.1506 19.1007 44.9985 24.0854 47.8922 29.0434C48.0992 29.3285 48.2114 29.6713 48.2131 30.0236C48.2147 30.3759 48.1057 30.7198 47.9015 31.0068C45.1452 35.6987 42.4432 40.4224 39.7163 45.1316C39.5265 45.4595 39.2799 45.7545 39.0597 46.0648ZM30.1229 22.0677C29.0576 22.0225 27.9943 22.1956 26.9982 22.5763C26.0022 22.957 25.0945 23.5373 24.3309 24.2815C23.5673 25.0258 22.9639 25.9183 22.5578 26.9042C22.1516 27.8901 21.9513 28.9487 21.9692 30.0148C21.9739 32.106 22.8 34.1117 24.2696 35.5995C25.7392 37.0873 27.7344 37.9382 29.8254 37.9687C30.8874 37.9907 31.9432 37.8024 32.9321 37.4146C33.9209 37.0269 34.8234 36.4473 35.5873 35.7094C36.3513 34.9714 36.9617 34.0896 37.3835 33.1148C37.8053 32.1399 38.03 31.0913 38.0448 30.0292C38.0878 25.6186 34.1617 21.8181 30.123 22.0677H30.1229Z" fill="#E1E2E4"/>
</svg>
