<!DOCTYPE svg PUBLIC "-//W3C//DTD SVG 1.1//EN" "http://www.w3.org/Graphics/SVG/1.1/DTD/svg11.dtd" [
	<!ENTITY ns_flows "http://ns.adobe.com/Flows/1.0/">
]><svg xmlns="http://www.w3.org/2000/svg" width="60" height="60" viewBox="0 -10.938 60 60" overflow="visible"><path fill-rule="evenodd" clip-rule="evenodd" fill="#1066FF" d="M3.45.2C17.2.034 31.748.11 45.806.11c2.086 0 4.38-.3 5.945.09 1.256.314 2.68 1.646 2.97 2.672.57 1.992.096 5.528.096 8.015V35.11c0 .995-2.522 3.038-3.25 3.777-2.436 2.474-4.313 4.33-6.966 6.725-1.01.91-2.432 3.054-3.532 3.316-1.256.302-3.266 0-4.83 0H7.82c-1.657 0-3.476.215-4.644-.092C1.884 48.496.54 47.143.204 45.98c-.39-1.344-.093-3.415-.093-5.34V8.03c0-1.74-.252-3.928.186-5.158C.753 1.582 1.93.63 3.45.202zm5.76 8.476c.22 1.026 1.437 1.76 2.322 1.75 2.917-.028 3.062-5.032-.28-4.606-1.285.164-2.414 1.12-2.042 2.856zm33.9 1.75c3.48.458 3.59-5.15.095-4.606-2.626.41-2.442 4.296-.094 4.606zM27.6 23.046c1.558-5.46-3.146-8.756-8.265-8.383-4.633.338-6.923 3.568-7.152 8.014.937.238 2.17.183 3.344.186.32-1.44.4-2.605 1.207-3.686 2.184-2.924 8.34-1.385 7.523 3.04-.427 2.314-2.812 3.187-5.944 3.04.043.993-.165 1.74-.092 2.763 4.36-.314 7.778 1.263 7.06 5.436-.43 2.51-3.305 3.94-6.036 3.59-2.684-.342-3.844-2.54-4.272-5.156-1.187-.012-2.363-.012-3.343.184.112 5.186 3.657 8.014 8.45 8.014 2.326 0 5.167-.668 6.78-2.303 3.135-3.17 2.49-10.21-1.764-11.515 1.147-.845 2.106-1.826 2.506-3.225zm11.053-8.107c-1.107 2.277-3.332 3.45-6.595 3.59.086.66-.25 1.876 0 2.67 1.704.276 4.055-.09 5.76.186.12 6.05-.246 12.586.185 18.33.834.255 2.393.26 3.344.092.07-8.19.213-16.8 0-24.963-.784-.148-2.278-.18-2.694.092z"/></svg>