<!DOCTYPE svg PUBLIC "-//W3C//DTD SVG 1.1//EN" "http://www.w3.org/Graphics/SVG/1.1/DTD/svg11.dtd" [
	<!ENTITY ns_flows "http://ns.adobe.com/Flows/1.0/">
]><svg xmlns="http://www.w3.org/2000/svg" width="100" height="124" viewBox="-0.001 -6.269 100 124" overflow="visible"><path fill-rule="evenodd" clip-rule="evenodd" fill="#FFF" d="M70.71 16.35l4.26 2.453 6.726 3.882c1.47.846 3.133 1.79 4.635 2.64 6.643 3.76 9.995 5.657 11.83 8.806 1.863 3.196 1.844 7.15 1.8 15.127-.01 1.44-.018 3.015-.018 4.736l.01 8.07v7.763c0 1.96.016 3.73.028 5.33.064 7.638.098 11.49-1.705 14.648-1.835 3.21-5.273 5.172-12.21 9.122-1.19.68-2.49 1.42-4.1 2.353l-6.985 4.04-6.726 3.88c-1.93 1.116-3.337 1.946-4.606 2.694-6.575 3.87-9.892 5.823-13.533 5.84-3.707.016-7.12-1.982-14.005-6.007v.005c-1.656-.968-3.49-2.038-4.085-2.384l-6.995-4.028-6.726-3.882c-1.465-.847-3.13-1.79-4.63-2.64C7.03 95.038 3.68 93.14 1.84 89.99-.02 86.796 0 82.84.045 74.86c.008-1.436.016-3.006.012-4.73L.05 62.06v-7.764c0-1.96-.016-3.73-.027-5.33-.07-7.638-.102-11.492 1.705-14.65 1.834-3.21 5.272-5.17 12.21-9.126a520.75 520.75 0 0 0 4.098-2.348l6.986-4.04 4.264-2.463V2.666a2.67 2.67 0 0 1 4.57-1.87l7.848 7.844c.99-.447 2.018-.817 3.084-1.106 1.7-.456 3.48-.7 5.306-.7 1.79 0 3.544.236 5.23.684 1.05.276 2.06.634 3.03 1.06l7.8-7.8a2.67 2.67 0 0 1 3.772 0c.52.522.78 1.206.78 1.89v13.68zM39.495 85.227v3.793h3.792l-3.792-3.792zm16.74-4.378H52.66l7.95 7.95a1.263 1.263 0 1 0 1.786-1.786l-6.16-6.165zm-4.223 0h-3.577l7.95 7.95a1.264 1.264 0 1 0 1.787-1.785l-6.16-6.166zm-4.224 0H44.21l7.95 7.95c.493.492 1.295.492 1.787 0s.49-1.298 0-1.786l-6.16-6.165zm-4.225 0h-3.577l4.598 4.597a1.263 1.263 0 1 0 1.79-1.786l-2.81-2.812zm-4.07.154v3.576l4.44 4.44h3.577l-8.016-8.015zM63.98 28.612c-3.5 1.88-6.994 3.76-10.49 5.64 5.478 3.45 11.187.54 10.49-5.64zm-27.737.06c-.623 6.19 5.12 9.034 10.555 5.52-3.52-1.84-7.04-3.68-10.555-5.52zm-6.962-8.64l-2.66 1.537-6.986 4.035c-1.384.802-2.812 1.62-4.122 2.364-6.42 3.657-9.6 5.472-11.01 7.937-1.384 2.42-1.352 5.977-1.29 13.033.01 1.6.027 3.37.027 5.356v3.422c1.8-1.94 4.374-3.43 7.7-5.355l.31-.175 13.816-7.996 4.2-2.425c0-1.876.003-4.203.007-7.548.005-2.215.01-5.274.01-14.19zm67.473 37.82l-.004-3.862c0-1.732.01-3.307.016-4.744.04-7.397.062-11.06-1.37-13.517-1.4-2.398-4.5-4.15-10.642-7.63-1.28-.725-2.7-1.527-4.646-2.654L73.38 21.57l-2.673-1.543v8.31c0 2.188.012 3.222.023 4.32.028 3.043.065 6.502.017 9.13l4.17 2.405 13.685 7.898c3.707 2.14 6.294 3.642 8.15 5.762zM68.528 44.188c-.16 2.13-.57 3.78-1.4 5.22-1.11 1.945-2.95 3.466-5.903 5.245-.013.004-.02.012-.033.016l-1.888 1.095-1.84 1.062c-2.92 1.686-5.11 2.53-7.352 2.54-2.242.003-4.476-.827-7.49-2.49-.017-.013-.034-.02-.046-.028l-1.88-1.084-1.84-1.062c-2.92-1.688-4.748-3.162-5.874-5.098-.86-1.473-1.29-3.186-1.477-5.437l-4.834 2.79-13.82 7.99-.305.18C6.6 58.568 3.47 60.378 3.352 67.023c.04-.077.085-.154.13-.232a6.967 6.967 0 0 1 2.78-2.686c1.13-.594 2.437-.895 3.85-.895 2.04 0 4.304.637 6.534 1.935l16 9.302c.585-.696 1.504-1.273 2.994-2.137L46 66.327c1.843-1.065 2.87-1.603 3.97-1.606 1.104-.01 2.13.518 3.973 1.58l10.363 5.98c1.53.883 2.466 1.457 3.056 2.173l16.003-9.306c2.23-1.298 4.492-1.937 6.54-1.937 1.407 0 2.713.3 3.845.894a6.98 6.98 0 0 1 2.783 2.686c.036.065.073.13.105.195-.118-3.178-.765-5.184-2.092-6.807-1.514-1.84-3.96-3.256-7.53-5.318l-13.687-7.9-4.803-2.77zM3.348 71.76l.004 6.25v.244l.004.244v.935l.004.224.004.225v.22l.004.215.004.212v.21l.008.207.004.2.004.203.004.196.008.196.008.19.004.188.008.188.012.183.008.18.008.18.012.176.012.17.012.168.012.167v.005l.012.163.016.158v.004l.017.158.018.154.016.154.017.155.02.15.02.148.023.146.02.143.024.143.024.137.025.135.024.138.03.13.026.135.028.126.033.133.033.126.03.12.034.123.037.122.04.116.038.114.04.118.042.115.04.114.045.11.044.11.043.104.05.11.048.102.054.105.053.106.053.102c.017.033.038.065.058.098l.057.103.057.097.06.098.062.098.065.098.067.094.065.098.07.095.072.094.073.094.077.09.078.093.077.094.08.09.086.095.085.09.086.09.09.09.093.093.092.09.098.09.1.09.1.084v.005l.103.09.106.09.103.09.11.09.114.09.114.088.12.09.117.094.122.09.12.09.127.092.13.094.134.09.13.093.14.093.14.095.14.098.146.094v.004l.143.095.15.097.154.098.155.1.16.1.157.1.163.1.168.106.17.104.172.104.175.102.175.11.183.105.183.11.183.11.19.114.19.11.195.116.2.115.203.118.202.118.208.122.212.122.21.122 13.685 7.898 13.835 7.97c4.59 2.644 7.114 3.954 9.567 3.937 2.45-.012 4.98-1.354 9.578-4.012l13.684-7.9 13.816-7.993.216-.126.208-.118.208-.122.203-.117.2-.12.2-.118.196-.114.19-.11.188-.114.188-.11.184-.11.18-.108.175-.106.175-.105.17-.102.168-.106.167-.103.16-.102.16-.102.158-.098.15-.102.155-.098.146-.098.144-.094.143-.098.143-.094.14-.093.134-.098.134-.095.13-.093.127-.09.126-.095.124-.094.122-.09.118-.09.113-.092.114-.09.11-.088.11-.09.105-.09.103-.09v-.003l.102-.09.1-.09.1-.09.093-.09.094-.09.09-.094.09-.09.084-.09.088-.093.08-.09.083-.093.078-.09.077-.094.073-.094.073-.094.07-.095c.024-.032.05-.064.07-.097l.067-.094.065-.1.063-.093v-.003l.06-.094.063-.102.057-.097.057-.1.053-.1.054-.105.052-.105.05-.104.048-.106.045-.105.044-.11h.004l.04-.11.045-.108v-.005l.04-.11.04-.113v-.006l.037-.114.036-.116.038-.118.033-.122.037-.126.028-.122.032-.127.028-.13.03-.13c.02-.088.035-.177.052-.267l.024-.135.03-.14.02-.142.02-.143.02-.143.022-.146.02-.15.022-.15.017-.15.017-.16.017-.153.01-.162.018-.158v-.004l.013-.163.013-.167.013-.17.01-.176.01-.175.01-.18.008-.18.008-.182.01-.188.003-.188.007-.196.004-.194.006-.196.008-.203.004-.202.004-.208v-.207l.004-.216.005-.216v-.44l.005-.224v-.462h.004v-7.078c0-1.79-.384-3.264-1.055-4.415a5.878 5.878 0 0 0-2.355-2.275c-.978-.517-2.116-.773-3.35-.773-1.863 0-3.938.59-6.006 1.79L67.92 75.36c.352.875.394 1.978.394 3.78l.007 11.255c0 2.128-.05 3.284-.593 4.24-.546.96-1.514 1.587-3.357 2.648l-10.36 5.99c-1.838 1.065-2.863 1.603-3.97 1.606-1.1.01-2.124-.52-3.972-1.584L35.7 97.32c-1.842-1.062-2.82-1.68-3.376-2.633s-.614-2.105-.62-4.232L31.7 79.2c0-1.844.04-2.958.4-3.846L16.12 66.06c-2.065-1.2-4.14-1.79-6-1.79-1.236 0-2.375.257-3.35.773a5.92 5.92 0 0 0-2.36 2.274c-.665 1.15-1.052 2.625-1.052 4.415v.025h-.01zm60.427 1.437L53.412 67.22c-1.677-.965-2.596-1.445-3.434-1.44-.842.003-1.762.495-3.447 1.464l-10.353 5.99c-1.676.968-2.55 1.52-2.966 2.254-.42.732-.455 1.773-.455 3.715l.008 11.255c0 1.937.044 2.966.468 3.694.428.73 1.315 1.28 2.99 2.25l10.37 5.978c1.676.964 2.59 1.444 3.434 1.44.843-.004 1.762-.497 3.442-1.47l10.36-5.985c1.676-.968 2.55-1.52 2.966-2.254.42-.73.452-1.77.452-3.713l-.004-11.255c0-1.932-.05-2.965-.472-3.693-.427-.73-1.31-1.283-2.99-2.25zm3.764-35.73l-8.22 4.43c-.014.01-.025.013-.038.022l-5.208 2.72c-1.867.977-2.91 1.47-4.016 1.473-1.107.008-2.145-.476-4.013-1.45L40.743 41.9l-.004-.003h-.004l-8.28-4.528v4.483c.06 3.26.423 5.46 1.444 7.218 1.022 1.754 2.73 3.118 5.486 4.71l1.84 1.06 1.883 1.087.022.012c2.856 1.58 4.944 2.367 6.98 2.36 2.025-.006 4.06-.803 6.818-2.398l1.84-1.062 1.89-1.09.015-.01c2.796-1.682 4.52-3.098 5.53-4.86 1.01-1.76 1.34-3.92 1.34-7.103v-2.124l-.006-2.186zm-.03-1.192V3.955l-8.25 8.252h-.006a.527.527 0 0 1-.64.085 17.054 17.054 0 0 0-8.518-2.255c-1.554 0-3.052.204-4.48.586-1.46.395-2.848.977-4.13 1.717a.532.532 0 0 1-.675-.06l-8.32-8.326v32.222l8.757 4.785 5.294 2.76c1.71.89 2.646 1.335 3.517 1.33.87-.002 1.81-.46 3.528-1.353l5.212-2.722.02-.012 8.695-4.687z"/></svg>