<!DOCTYPE svg PUBLIC "-//W3C//DTD SVG 1.1//EN" "http://www.w3.org/Graphics/SVG/1.1/DTD/svg11.dtd" [
	<!ENTITY ns_flows "http://ns.adobe.com/Flows/1.0/">
]><svg xmlns="http://www.w3.org/2000/svg" width="100" height="124" viewBox="-0.116 -12.269 100 124" overflow="visible"><path fill-rule="evenodd" clip-rule="evenodd" fill="#FFF" d="M87.064 19.54a1.62 1.62 0 0 1 .6 2.21 1.62 1.62 0 0 1-2.21.593l-3.88-2.234-.003-.006v.004l-8.197-4.733a1.103 1.103 0 0 0-.08-.053l-7.46-4.305-.004-.005-.005.004-9.892-5.714-.028-.016c-2.287-1.27-4.073-1.97-5.75-2.042-1.648-.07-3.333.48-5.465 1.7a1.787 1.787 0 0 1-.115.062l-9.762 5.636-8.19 4.728v.004l-7.55 4.358-9.89 5.708-.033.02C6.912 26.804 5.41 28 4.507 29.424c-.887 1.4-1.257 3.125-1.265 5.57h.008V46.4h-.007v9.46h.008v8.72h-.006v11.393c.04 2.653.325 4.565 1.11 6.067.762 1.46 2.076 2.645 4.2 3.877l9.875 5.702 2.306 1.334V43.25l.004-.028v-.016l.003-.028v-.018l.004-.033v-.016l.004-.022.006-.03.004-.01v-.017l.007-.023.004-.028.006-.013.004-.012.003-.024.008-.03.006-.006.004-.017.007-.024.004-.028.006-.008.004-.004.007-.028.004-.008.01-.024.004-.012.004-.01.012-.025.01-.024.005-.007.004-.016.01-.02v-.005l.012-.02v-.004l.012-.02.012-.02v-.005l.012-.02.003-.01.01-.013.012-.02h.004l.012-.025.003-.008.018-.02.012-.02.017-.02.01-.022h.005l.012-.02.016-.025.008-.004.01-.016h.003l.013-.017.016-.02.01-.008.01-.012.012-.016.004-.004.017-.02.004-.004.012-.013.015-.016.004-.003.02-.017.003-.008.012-.013.016-.013.005-.004.02-.015.005-.008.018-.008.037-.034v-.004l.008-.004.017-.008.02-.017.02-.016.042-.03.024-.017.045-.028.023-.012 30.79-17.777C54.4 22.96 56.74 22.34 59 22.34v-.003c1.752 0 3.466.374 4.98 1.143a9.085 9.085 0 0 1 3.857 3.698c.866 1.538 1.37 3.43 1.37 5.685h.005c0 .822.22 1.603.615 2.29.017.03.032.054.045.082.476.793 1.2 1.477 2.104 1.974.956.523 2.116.83 3.405.83 1.57 0 3.32-.45 5.14-1.5l17.033-9.834a1.614 1.614 0 0 1 2.21.598c.145.252.215.53.215.806l.004 32.187c0 .622-.35 1.16-.857 1.432L82.83 71.135c-2.496 1.44-5.4 2.31-8.058 2.31-1.52 0-2.975-.283-4.27-.902a7.44 7.44 0 0 1-3.29-3.04c-.79-1.366-1.246-3.1-1.246-5.252h-.004c0-1.48-.35-2.796-.97-3.866a6.057 6.057 0 0 0-2.237-2.254c-.92-.53-2.018-.822-3.23-.822-1.493 0-3.15.445-4.87 1.438h.004L23.97 76.46v18.364l2.654 1.534c.028.017.057.032.085.05l7.456 4.308h.004l9.893 5.71.032.02c2.287 1.266 4.073 1.97 5.746 2.04 1.65.067 3.335-.478 5.466-1.702.037-.02.078-.04.114-.057l9.757-5.636 8.194-4.73 17.2-9.93c2.54-1.47 4.104-2.794 4.994-4.39.892-1.595 1.185-3.61 1.185-6.433 0-.9.73-1.628 1.626-1.628.896 0 1.624.73 1.624 1.627 0 3.365-.4 5.847-1.605 8.008-1.204 2.16-3.14 3.854-6.2 5.62L75 99.16l-8.2 4.732h-.003l-9.758 5.635-.12.072c-2.677 1.533-4.895 2.217-7.206 2.12-2.254-.1-4.464-.933-7.19-2.446a.577.577 0 0 1-.085-.045l-9.893-5.714v-.005l-7.457-4.3-.09-.05-8.198-4.73-9.875-5.702c-2.67-1.554-4.37-3.133-5.444-5.188C.433 81.53.055 79.178.006 76.028V64.584H0v-8.72h.004v-9.46H0V34.997h.004c.012-3.1.525-5.363 1.762-7.312 1.208-1.896 3.04-3.394 5.717-5 .024-.017.05-.033.077-.05l9.892-5.708L25 12.567v.006l.004-.004 8.2-4.734L42.96 2.2l.118-.072c2.677-1.534 4.89-2.213 7.206-2.12 2.254.098 4.464.936 7.19 2.445.028.016.058.028.086.045l9.892 5.713v.006l7.458 4.305c.028.017.062.033.09.05l8.195 4.73v.006l3.87 2.235zm.04 45.385v-8.312l-5.14 2.966c-1.26.727-2.505 1.21-3.706 1.476v8.57a14.613 14.613 0 0 0 2.955-1.3l5.892-3.402zm0-9.562V46.5l-4.572 2.64c-1.46.847-2.9 1.36-4.273 1.588v9.216c1.02-.252 2.082-.68 3.164-1.302l5.68-3.28zm0-10.112v-8.775l-4.976 2.873c-1.314.757-2.616 1.274-3.87 1.583v8.697c1.192-.22 2.45-.68 3.73-1.42l5.117-2.955zm1.084-9.4v8.78l8.554-4.94v-8.777l-8.554 4.936zm0 10.025v8.866l8.554-4.94v-8.86l-8.554 4.935zm0 10.11V64.3l8.554-4.936V51.05l-8.554 4.935zM77.18 69.915V61.24c-.38.04-.756.064-1.126.064-1.578 0-3.03-.398-4.276-1.11a8.14 8.14 0 0 1-2.575-2.344v6.013c.004.13.004.256.004.387h-.004c0 1.55.297 2.75.813 3.642a4.27 4.27 0 0 0 1.88 1.73c.822.394 1.807.572 2.873.572.78 0 1.592-.097 2.41-.28zm0-9.77v-9.297a8.703 8.703 0 0 1-.56.016c-1.58 0-3.032-.395-4.277-1.11s-2.278-1.746-3.01-3.023a4.505 4.505 0 0 1-.13-.23v9.097c.14.362.308.704.495 1.03a7.127 7.127 0 0 0 2.616 2.632c1.078.62 2.348.96 3.74.96a9.08 9.08 0 0 0 1.127-.074zm0-10.38v-8.618a11.41 11.41 0 0 1-1.802.142c-1.85 0-3.544-.457-4.968-1.238-.427-.235-.83-.5-1.208-.792v3.49c.12 1.287.492 2.45 1.062 3.44a7.105 7.105 0 0 0 2.616 2.627c1.078.623 2.348.965 3.74.965.187 0 .374-.004.56-.015zm-22.753 5.457v-9.134c-.378.175-.765.375-1.15.598h.003l-8.292 4.785v9.115l8.04-4.643h.01c.466-.272.93-.508 1.39-.72zm0-10.31v-8.984c-.19.098-.39.204-.582.317v.004l-8.858 5.11v8.866l7.748-4.476h.004a14.28 14.28 0 0 1 1.686-.838zm0-10.19v-8.015a8.18 8.18 0 0 0-.468.252l-8.974 5.18v7.974l8.313-4.8h.003c.375-.22.753-.416 1.123-.59zm1.087-8.495v8.05c1.28-.47 2.526-.69 3.698-.69 1.583 0 3.036.396 4.28 1.112a8.114 8.114 0 0 1 2.47 2.2v-3.73c-.003-.103-.003-.205-.003-.306 0-1.672-.35-3.027-.94-4.085a1.208 1.208 0 0 1-.044-.074 5.918 5.918 0 0 0-2.474-2.332c-1.042-.53-2.25-.785-3.507-.785v-.01a9.897 9.897 0 0 0-3.482.646zm0 9.204v9.09a10.453 10.453 0 0 1 3.133-.497c1.58 0 3.03.4 4.276 1.11a8.197 8.197 0 0 1 3 3l.016.028.022.04v-9.153a6.78 6.78 0 0 0-.395-.78l-.017-.034a7.057 7.057 0 0 0-2.6-2.6c-1.078-.62-2.348-.964-3.74-.964-1.16 0-2.406.24-3.696.76zm0 10.225v9.13c1.384-.495 2.734-.728 4.008-.728 1.778 0 3.426.45 4.847 1.266.57.33 1.104.72 1.593 1.16V51.38a8.19 8.19 0 0 0-.96-2.678l-.017-.03a7.11 7.11 0 0 0-2.6-2.603c-1.08-.62-2.35-.96-3.74-.96-.994 0-2.047.173-3.133.543zm-11.61 15.552v-9.114l-9.525 5.5v9.115l9.524-5.5zm0-10.36l.005-8.866-9.53 5.5v8.864l9.524-5.496zm.005-10.11v-7.972l-9.53 5.497v7.972l9.53-5.497zM33.3 67.33v-9.114l-9.325 5.387v9.11L33.3 67.33zm0-10.36v-8.86l-9.325 5.383v8.863L33.3 56.97zm0-10.11v-7.977l-9.33 5.388.005 7.973L33.3 46.86z"/></svg>