<!DOCTYPE svg PUBLIC "-//W3C//DTD SVG 1.1//EN" "http://www.w3.org/Graphics/SVG/1.1/DTD/svg11.dtd" [
	<!ENTITY ns_flows "http://ns.adobe.com/Flows/1.0/">
]><svg xmlns="http://www.w3.org/2000/svg" width="100" height="124" viewBox="0 -1.12 100 124" overflow="visible"><path fill-rule="evenodd" clip-rule="evenodd" fill="#FFF" d="M12.48 102.953l-4.912-2.836-.028-.016v.006c-2.706-1.623-4.558-3.125-5.77-5.037C.533 93.12.016 90.86.007 87.756H0V46.753c0-.06.004-.117.008-.17.062-3.077.44-5.388 1.478-7.37 1.074-2.055 2.77-3.633 5.444-5.187l6.218-3.59a.49.49 0 0 1 .09-.048L25 23.598v-.006l9.192-5.307a1.627 1.627 0 0 1 2.217.59 1.625 1.625 0 0 1-.596 2.218l-9.19 5.307v-.004l-.006.004-11.764 6.787-.082.053-6.222 3.593C6.43 38.07 5.12 39.25 4.354 40.71c-.772 1.477-1.058 3.35-1.106 5.93 0 .035.004.072.004.112v41.004h-.01c.01 2.445.38 4.176 1.27 5.57.908 1.438 2.426 2.64 4.692 3.996v.004l4.89 2.824c.038.017.08.038.115.058l4.193 2.404V90.865a2.708 2.708 0 0 1 2.71-2.71h2.645v-23.97c0-.49.13-.948.353-1.344a14.49 14.49 0 0 1 2.463-3.643 17.597 17.597 0 0 1 2.502-2.242v-8.068c0-.635.22-1.22.586-1.68a22.49 22.49 0 0 1 3.948-4.37 22.848 22.848 0 0 1 4.744-3.094c.33-.748.7-1.416 1.144-2.034.05-.07.102-.136.154-.2.4-.53.84-1.014 1.34-1.474V33.12a8.968 8.968 0 0 1 2.644-6.36 9.003 9.003 0 0 1 4.74-2.5V1.625a1.624 1.624 0 0 1 3.25 0V24.26a9.013 9.013 0 0 1 4.74 2.498 8.976 8.976 0 0 1 2.645 6.36v2.926a11.742 11.742 0 0 1 1.523 1.75c.46.65.843 1.338 1.172 2.087 1.62.82 3.113 1.8 4.473 2.956a22.79 22.79 0 0 1 4.056 4.524c.317.467.468 1 .468 1.525h.008v8.068a17.53 17.53 0 0 1 2.5 2.242c1.102 1.2 1.98 2.522 2.587 3.92.15.35.22.714.22 1.067h.01v23.97h2.857a2.71 2.71 0 0 1 2.71 2.712v11.816l3.617-2.137c.04-.023.078-.045.12-.064l6.03-3.486.085-.053c2.124-1.23 3.434-2.415 4.2-3.876.768-1.473 1.057-3.35 1.105-5.928-.004-.037-.004-.074-.004-.11V46.02h.007c-.008-2.445-.378-4.17-1.27-5.57-.903-1.424-2.4-2.62-4.64-3.963l-.03-.02-5.03-2.906-12.32-7.11-.095-.05-9.013-5.203a1.626 1.626 0 0 1-.59-2.218 1.625 1.625 0 0 1 2.217-.59L75 23.59c.028.016.057.032.08.053l12.326 7.112.004.004v-.002l5.03 2.905a.475.475 0 0 1 .076.045c2.678 1.607 4.51 3.104 5.713 5 1.235 1.95 1.752 4.212 1.765 7.313H100v41.01c0 .057-.004.115-.008.17-.062 3.08-.44 5.385-1.478 7.37-1.07 2.05-2.77 3.63-5.44 5.184-.032.016-.06.033-.093.05l-6.033 3.48c-.024.022-.053.038-.08.054-8.04 4.744-15.857 9.36-23.943 14.137-.02.012-.04.02-.06.03l-4.985 2.878a.715.715 0 0 1-.087.045c-2.722 1.51-4.936 2.352-7.19 2.445-2.31.098-4.528-.586-7.206-2.12l-.117-.073-6.1-3.524-.01-.004v.004l-11.845-6.84v.004c-4.235-2.428-8.395-4.81-12.73-7.29-.038-.028-.078-.05-.116-.077zm9.175 1.524l4.27 2.44v-15.51h-4.27v13.07zm5.355 3.066l3.605 2.08v-38.24c0-4.23 1.37-8.153 3.694-11.35V57.71c0-4.317 1.765-8.24 4.604-11.084l.036-.036v-1.57c0-.855.1-1.69.286-2.49a19.103 19.103 0 0 0-3.53 2.384 19.32 19.32 0 0 0-3.38 3.744v9.33h-.003c0 .184-.09.362-.257.46a14.61 14.61 0 0 0-3.104 2.535c-.834.91-1.497 1.89-1.953 2.918v43.644zm4.687 2.707l4.647 2.682V99.46c0-.782.32-1.495.838-2.01v-.005a2.843 2.843 0 0 1 4.025 0c.517.517.838 1.233.838 2.015v16.767l2.853 1.648c.037.016.073.037.114.057.55.318 1.07.586 1.566.814V74.59c0-.94.382-1.8 1.005-2.418l.032-.033a3.41 3.41 0 0 1 4.802.03.1.1 0 0 1 .028.034c.606.617.977 1.46.977 2.385v44.36c.854-.34 1.778-.79 2.8-1.357l.032-.02 1.92-1.11V99.46c0-.782.322-1.5.84-2.015a2.847 2.847 0 0 1 4.862 2.015v13.68l4.428-2.612V91.186h-7.72a.538.538 0 0 1-.54-.54v-16.83a10.034 10.034 0 0 0-3.65-7.73.486.486 0 0 1-.195-.16 10.01 10.01 0 0 0-6.2-2.153 9.984 9.984 0 0 0-5.47 1.63 10.19 10.19 0 0 0-3.726 4.384 9.96 9.96 0 0 0-.635 1.97c-.14.66-.21 1.35-.21 2.06v16.828a.54.54 0 0 1-.543.54h-7.72v19.066zm5.73 3.31l1.37.788-.003.004 2.17 1.248V99.46c0-.485-.2-.93-.522-1.247a1.754 1.754 0 0 0-2.495 0v-.004c-.32.32-.52.764-.52 1.25v14.1zm10.233 5.622c.997.342 1.913.488 2.815.45.6-.022 1.213-.13 1.86-.31 0-.05.004-.095.004-.14V74.59c0-.63-.255-1.205-.665-1.63l-.024-.022a2.335 2.335 0 0 0-3.28-.03l-.023.03a2.325 2.325 0 0 0-.688 1.65v44.594zm11.597-3.342l1.98-1.146.034-.016 1.523-.9v-14.32c0-.483-.2-.927-.52-1.245a1.77 1.77 0 0 0-1.246-.52c-.488 0-.928.2-1.25.52-.32.318-.52.762-.52 1.246v16.38zm10.128-5.953l3.394-2.002v-43.99c-.458-1.018-1.113-1.99-1.93-2.89a14.515 14.515 0 0 0-3.1-2.542.546.546 0 0 1-.29-.48v-9.33a19.585 19.585 0 0 0-3.345-3.72c-.012-.007-.02-.016-.032-.023a19.342 19.342 0 0 0-3.25-2.23c.092.514.157 1.022.198 1.53.066.794.07 1.587.03 2.38 1.813 1.706 3.043 3.716 3.787 5.98.143.43.265.873.37 1.325.232.915.383 1.863.443 2.836.087 1.068.1 2.175.042 3.31 1.078 1.404 1.94 3.01 2.563 4.847.045.13.086.26.126.39.646 1.917.995 3.968.995 6.093v38.518zm4.475-2.645l5.025-2.96V90.864H73.86v16.377zM50.517 37.72l1.335 4.402c.524.064 1.046.15 1.554.265l3.09-3.057a.542.542 0 0 1 .907.51l-.846 3.616c1.23.57 2.372 1.294 3.41 2.148v-.59a9.943 9.943 0 0 0-2.93-7.04c-1.808-1.8-4.3-2.924-7.037-2.924s-5.232 1.123-7.035 2.926a9.935 9.935 0 0 0-2.93 7.04v.59a15.828 15.828 0 0 1 3.5-2.19l-.933-3.563a.533.533 0 0 1 .387-.655.53.53 0 0 1 .502.126l3.24 3.035a15.69 15.69 0 0 1 1.545-.25l1.2-4.378a.545.545 0 0 1 .664-.38.557.557 0 0 1 .376.366zm5.24-2.125V32.72a5.75 5.75 0 0 0-1.69-4.066A5.746 5.746 0 0 0 50 26.962a5.74 5.74 0 0 0-4.063 1.692 5.75 5.75 0 0 0-1.692 4.065v2.874a10.912 10.912 0 0 1 4.18-1.514l1.058-3.864a.537.537 0 0 1 .663-.378c.183.05.32.19.374.36l1.18 3.9c1.466.228 2.837.75 4.058 1.497zm-20.364 23.08c.293-.338.598-.668.915-.985a19.555 19.555 0 0 1 6.152-4.158l-1.106-4.235a.544.544 0 0 1 .387-.66.555.555 0 0 1 .506.13l3.866 3.626c.632-.13 1.278-.23 1.93-.297l1.44-5.253a.537.537 0 0 1 .663-.378.55.55 0 0 1 .374.36l1.6 5.287c.653.073 1.3.18 1.936.313l3.69-3.65a.544.544 0 0 1 .908.51l-1.005 4.292a19.66 19.66 0 0 1 6.046 4.113c.317.317.622.647.915.985v-.97c0-.34-.012-.683-.036-1.02-.073-.82-.195-1.62-.37-2.39a14.648 14.648 0 0 0-3.886-6.908 14.586 14.586 0 0 0-8.794-4.21.57.57 0 0 1-.17 0c-.212-.022-.428-.033-.65-.046-.21-.006-.444-.015-.7-.015-.24 0-.453.01-.636.013-.188.008-.398.024-.627.04a.38.38 0 0 1-.125-.004A14.574 14.574 0 0 0 39.88 47.2l-.01.01c-.06.06-.125.12-.183.18-2.648 2.647-4.292 6.302-4.292 10.317v.97zm8.08-5.542c.452-.163.912-.31 1.38-.44l-1.98-1.854.6 2.292zm5.71-1.12c.2-.007.402-.012.61-.016h.413c.25.004.5.013.747.02l-.932-3.08-.84 3.077zm6.098.717c.458.13.905.277 1.35.443l.54-2.31-1.89 1.867zm13.024 18.653v-.04c-.086-2.093-.396-3.96-.907-5.628a18.4 18.4 0 0 0-4.473-7.26 18.42 18.42 0 0 0-6.104-4.048h-.005l-.004-.004-.06-.024-.02-.01-.02-.01-.017-.007h-.004l-.02-.01-.023-.007-.024-.008-.02-.01-.02-.008-.022-.008-.02-.01-.02-.007-.02-.008-.04-.018-.023-.005-.02-.008-.025-.013-.02-.004-.02-.008-.022-.01-.02-.007-.02-.008-.042-.017-.024-.008-.02-.01-.022-.003-.02-.01-.02-.01-.022-.006-.02-.008-.025-.01-.04-.012-.02-.008-.107-.037-.02-.01-.02-.01-.025-.002-.02-.008-.146-.05-.02-.007-.025-.01h-.005l-.188-.06-.02-.01h-.006l-.017-.003a17.93 17.93 0 0 0-3.72-.744c-.023 0-.048 0-.072-.004-.533-.05-1.07-.073-1.615-.073-.436 0-.87.015-1.298.043l-.013.005h-.04l-.15.012-.013.004c-4.435.362-8.435 2.328-11.413 5.31-3.32 3.317-5.38 7.895-5.38 12.928v18.72h7.174v-16.28c0-.777.086-1.54.24-2.283.143-.67.342-1.31.594-1.93l-2.95-3.38a.538.538 0 0 1 .493-.89l4.748.774c.285-.297.59-.582.907-.846l-1.55-5.938a.538.538 0 0 1 .387-.654.532.532 0 0 1 .504.126l4.633 4.34c.306-.09.614-.166.932-.227l1.673-6.04a.543.543 0 0 1 .663-.38.55.55 0 0 1 .375.367l1.844 6.084c.32.068.634.154.942.252l4.44-4.39a.546.546 0 0 1 .766.008.54.54 0 0 1 .142.5l-1.42 6.064c.216.188.428.383.627.582.102.098.195.2.29.3l4.633-.92a.54.54 0 0 1 .635.43c.037.18-.02.35-.134.472l-2.94 3.486a11.04 11.04 0 0 1 .787 4.09V90.1h7.174V71.384h.014zm-28.09-2.84c.278-.518.6-1.01.957-1.473l-2.615-.428 1.66 1.9zm3.622-3.977l.103-.068a11.525 11.525 0 0 1 1.79-.953l-2.857-2.676.963 3.695zm5.14-1.83c.338-.028.68-.046 1.025-.046.396 0 .786.02 1.17.062l-1.145-3.785-1.05 3.768zm5.448.875c.655.29 1.282.64 1.868 1.043l.88-3.76-2.747 2.72zm4.513 3.598c.338.453.643.932.907 1.438l1.636-1.94-2.544.502zm-9.514-25.182c.19-.01.383-.013.578-.013.23 0 .465.01.69.017l-.665-2.202-.602 2.197zm1.095-8.085l-.492-1.63-.447 1.626c.153-.004.296-.008.422-.008.16 0 .33.004.517.013zm5.404 7.48l-1.295 1.28c.103.03.204.062.302.09.21.07.42.14.62.212l.37-1.584zm-11.8-.025l.415 1.58a9.61 9.61 0 0 1 .66-.217c.093-.033.19-.062.288-.09l-1.363-1.273z"/></svg>