<svg xmlns="http://www.w3.org/2000/svg" width="102" height="102"><defs><radialGradient id="a" cx="6.6" cy="99.8" r="129.5" gradientUnits="userSpaceOnUse"><stop offset=".1" stop-color="#fa8f21"/><stop offset=".8" stop-color="#d82d7e"/></radialGradient><radialGradient id="b" cx="70.7" cy="96.5" r="114" gradientUnits="userSpaceOnUse"><stop offset=".6" stop-color="#8c3aaa" stop-opacity="0"/><stop offset="1" stop-color="#8c3aaa"/></radialGradient></defs><path fill="url(#a)" d="M26 102a34 34 0 0 1-12-2 19 19 0 0 1-7-5 19 19 0 0 1-4-7 34 34 0 0 1-3-12V26a35 35 0 0 1 3-12 19 19 0 0 1 4-7 19 19 0 0 1 7-4 34 34 0 0 1 12-3h50a35 35 0 0 1 12 3 19 19 0 0 1 7 4 19 19 0 0 1 5 7 34 34 0 0 1 2 12v50a35 35 0 0 1-2 12 21 21 0 0 1-12 12 34 34 0 0 1-12 2H26" data-name="Path 16"/><path fill="url(#b)" d="M26 102a34 34 0 0 1-12-2 19 19 0 0 1-7-5 19 19 0 0 1-4-7 34 34 0 0 1-3-12V26a35 35 0 0 1 3-12 19 19 0 0 1 4-7 19 19 0 0 1 7-4 34 34 0 0 1 12-3h50a35 35 0 0 1 12 3 19 19 0 0 1 7 4 19 19 0 0 1 5 7 34 34 0 0 1 2 12v50a35 35 0 0 1-2 12 21 21 0 0 1-12 12 34 34 0 0 1-12 2H26" data-name="Path 17"/><path fill="#fff" d="M38 51a13 13 0 1 1 13 13 13 13 0 0 1-13-13m-6 0a19 19 0 1 0 19-19 19 19 0 0 0-19 19m35-20a5 5 0 1 0 4-5 5 5 0 0 0-4 5M36 82a21 21 0 0 1-7-1 13 13 0 0 1-7-7 21 21 0 0 1-2-7V36a21 21 0 0 1 2-7 13 13 0 0 1 7-7 21 21 0 0 1 7-2h30a21 21 0 0 1 7 2 13 13 0 0 1 8 7 21 21 0 0 1 1 7v31a21 21 0 0 1-1 7 13 13 0 0 1-8 7 21 21 0 0 1-7 1H36m-1-68a28 28 0 0 0-9 1 19 19 0 0 0-11 11 28 28 0 0 0-2 10v31a28 28 0 0 0 2 9 19 19 0 0 0 11 11 28 28 0 0 0 9 2h32a28 28 0 0 0 9-2 19 19 0 0 0 11-11 28 28 0 0 0 2-9V36a28 28 0 0 0-2-10 19 19 0 0 0-11-11 28 28 0 0 0-9-1l-16-1-16 1" data-name="Path 18"/></svg>