<svg xmlns="http://www.w3.org/2000/svg" width="60" height="60" viewBox="0 0 60 60"><path fill="#61AA01" d="M24.684 60c-1.845-.683-3.768-1.106-5.656-1.64A1575.96 1575.96 0 0 0 5.15 54.524c-.49-.134-.66-.345-.704-.868-.77-8.816-1.576-17.633-2.36-26.45C1.446 20.076.824 12.946.2 5.816.15 5.212.145 4.598.03 4.006c-.117-.597.13-.654.632-.654 16.178.01 32.357.013 48.535-.007.663 0 .707.223.657.78-.51 5.54-.994 11.083-1.492 16.625-.534 5.945-1.078 11.89-1.61 17.835-.43 4.81-.846 9.622-1.27 14.435-.007.1-.024.202-.02.305.048.772-.33 1.08-1.08 1.283-6.313 1.717-12.61 3.48-18.915 5.235-.115.03-.22.103-.327.156h-.454zm.162-40.042c-.002 7.524-.003 15.05-.007 22.573-2.254-.45-4.44-1.167-6.67-1.695-.34-.082-.32-.333-.34-.583-.11-1.284-.23-2.57-.335-3.853-.035-.434-.143-.67-.674-.66-1.694.04-3.39.034-5.084.005-.51-.01-.576.175-.537.624.254 2.92.492 5.84.705 8.766.03.4.153.573.533.67 1.027.255 2.047.542 3.066.825 3.114.867 6.227 1.733 9.338 2.603 0 1.847.03 3.695-.02 5.545-.017.712.163.86.845.668 5.12-1.433 10.246-2.843 15.375-4.243.317-.087.49-.21.498-.545.033-1.688.374-3.354.438-5.034.076-2.018.384-4.01.51-6.022.158-2.53.56-5.05.697-7.582.12-2.165.353-4.32.538-6.475.265-3.08.503-6.165.85-9.238.305-2.698.353-5.422.76-8.11.078-.517-.042-.774-.666-.772-6.38.02-12.76.018-19.14.003-.523 0-.707.146-.698.686.027 1.847.01 3.696.01 5.545-.303.01-.605.03-.908.03-4.676 0-9.355.01-14.03-.01-.538-.003-.767.078-.707.69.157 1.637.256 3.274.357 4.913.03.493.206.664.732.657 2.427-.034 4.855-.02 7.28-.015 2.425.004 4.85.02 7.28.033z"/><path fill="#87D000" d="M24.842 13.655c0-1.85.017-3.697-.01-5.545-.01-.54.174-.686.696-.686 6.38.015 12.76.018 19.14-.004.625-.002.745.256.666.77-.407 2.69-.455 5.413-.76 8.112-.347 3.074-.584 6.16-.85 9.238-.184 2.154-.42 4.31-.538 6.474-.14 2.534-.54 5.052-.697 7.584-.13 2.014-.436 4.005-.51 6.02-.064 1.683-.405 3.348-.44 5.035-.01.338-.18.46-.497.546-5.13 1.4-10.258 2.81-15.376 4.24-.683.19-.862.044-.844-.67.048-1.846.018-3.694.02-5.542l.016-.063c3.675-1.002 7.353-2 11.026-3.008 1.88-.515 1.842-.522 2.005-2.446.403-4.763.837-9.52 1.264-14.28.45-5.01.895-10.02 1.368-15.03.055-.58-.078-.735-.664-.73-2.507.03-5.013.008-7.518.015-2.504.006-5.01.023-7.513.035l.012-.068z"/><path fill="#88D002" d="M24.838 42.53c.004-7.522.005-15.048.007-22.572l-.007-.073c.277.01.554.033.83.033 2.505.002 5.006.007 7.51-.005.428-.002.608.04.556.576a3412.44 3412.44 0 0 0-1.89 19.686c-.038.42-.162.604-.585.714-2.15.554-4.29 1.15-6.43 1.73a.177.177 0 0 0 .007-.09z"/><path fill="#E9E9E8" d="M24.86 49.172l-.017.06-9.338-2.602c-1.02-.283-2.04-.572-3.067-.826-.38-.098-.503-.27-.533-.67a627.138 627.138 0 0 0-.706-8.766c-.04-.45.026-.633.535-.624 1.694.03 3.39.035 5.085-.005.532-.013.64.222.675.656.104 1.283.225 2.568.333 3.854.02.25 0 .502.34.584 2.233.528 4.418 1.245 6.67 1.697a.19.19 0 0 1-.01.093c.01 2.184.02 4.366.032 6.55zM24.846 19.958c-2.427-.013-4.853-.03-7.278-.036-2.426-.006-4.855-.02-7.28.014-.527.007-.703-.164-.733-.657-.1-1.64-.2-3.278-.357-4.913-.06-.614.168-.695.706-.692 4.676.02 9.354.01 14.03.01.304 0 .606-.02.91-.032l-.012.07c0 2.053.005 4.107.007 6.16l.005.074z"/><path fill="#FDFEFD" d="M24.838 19.886c-.002-2.054-.006-4.108-.007-6.162 2.505-.01 5.01-.028 7.515-.035 2.505-.01 5.01.014 7.517-.016.586-.006.72.148.664.73-.473 5.008-.918 10.02-1.368 15.03-.425 4.76-.858 9.518-1.263 14.28-.163 1.925-.126 1.932-2.002 2.446-3.673 1.01-7.353 2.008-11.028 3.01l-.03-6.55c2.14-.58 4.28-1.176 6.43-1.728.423-.11.545-.296.584-.714.61-6.563 1.235-13.128 1.89-19.688.053-.54-.13-.58-.557-.576-2.503.012-5.005.007-7.51.005-.278 0-.555-.025-.832-.035z"/></svg>