<svg width="60" height="60" viewBox="0 0 60 60" fill="none" xmlns="http://www.w3.org/2000/svg">
<path d="M52.0515 6H29C29 7.37128 29.2692 8.72911 29.7921 9.99586C30.3151 11.2626 31.0816 12.4134 32.0478 13.3826C33.014 14.3517 34.1609 15.12 35.423 15.6438C36.6852 16.1675 38.0377 16.4363 39.4034 16.4348H43.6536V20.5538C43.6506 23.3153 44.7378 25.9655 46.6772 27.9235C48.6165 29.8816 51.2498 30.9879 54 31V8.00229C54.0001 7.47908 53.7963 6.97661 53.4322 6.60239C53.068 6.22818 52.5724 6.01196 52.0515 6Z" fill="#2684FF"/>
<path d="M40.9626 18H17C17 19.3712 17.2797 20.729 17.8232 21.9958C18.3667 23.2626 19.1633 24.4136 20.1675 25.3832C22.1956 27.3414 24.9464 28.4414 27.8146 28.4414H32.2328V32.5471C32.2265 35.3114 33.357 37.965 35.3759 39.9249C37.3948 41.8849 40.137 42.9909 43 43V20.0128C43.0032 19.4859 42.791 18.9791 42.4096 18.6023C42.0282 18.2254 41.5082 18.009 40.9626 18V18Z" fill="url(#paint0_linear)"/>
<path d="M29.0338 29H6C6 31.7705 7.09306 34.4275 9.03873 36.3866C10.9844 38.3456 13.6233 39.4462 16.3749 39.4462H20.6589V43.5538C20.6559 46.3193 21.7433 48.9729 23.6823 50.9316C25.6212 52.8903 28.2531 53.9939 30.9997 54V31.0366C31.0042 30.7727 30.9569 30.5105 30.8604 30.2651C30.7639 30.0197 30.6201 29.7959 30.4374 29.6066C30.2547 29.4174 30.0367 29.2663 29.7958 29.1622C29.5549 29.0581 29.2959 29.003 29.0338 29V29Z" fill="url(#paint1_linear)"/>
<defs>
<linearGradient id="paint0_linear" x1="42.538" y1="18.0457" x2="32.7076" y2="28.5349" gradientUnits="userSpaceOnUse">
<stop offset="0.18" stop-color="#0052CC"/>
<stop offset="1" stop-color="#2684FF"/>
</linearGradient>
<linearGradient id="paint1_linear" x1="1035.25" y1="1011.75" x2="786.5" y2="1253.75" gradientUnits="userSpaceOnUse">
<stop offset="0.18" stop-color="#0052CC"/>
<stop offset="1" stop-color="#2684FF"/>
</linearGradient>
</defs>
</svg>
