<svg width="60" height="60" viewBox="0 0 60 60" fill="none" xmlns="http://www.w3.org/2000/svg">
<path d="M59.5656 34.9143C58.0546 28.348 56.5425 21.782 55.0293 15.2162C54.8526 14.4491 54.6746 13.6823 54.4953 12.9157C54.3703 12.324 54.1077 11.77 53.7288 11.2985C53.3499 10.8271 52.8653 10.4515 52.3143 10.2022C48.222 8.24287 44.128 6.28706 40.0324 4.33474C37.3436 3.05074 34.6492 1.77843 31.9681 0.478566C31.3653 0.16512 30.696 0.00102221 30.0166 1.98777e-05C29.3371 -0.000982457 28.6674 0.161163 28.0636 0.472829C21.3244 3.70588 14.5802 6.9286 7.83102 10.141C7.22309 10.4154 6.69024 10.8323 6.27753 11.3563C5.86481 11.8802 5.58438 12.4959 5.46002 13.1512C3.80076 20.4304 2.13065 27.7071 0.449646 34.9813C0.433686 35.1802 0.387137 35.3753 0.311646 35.56V36.2213C0.405356 36.295 0.373201 36.4083 0.388641 36.5011C0.503227 37.1899 0.796299 37.8366 1.23865 38.3768C5.97689 44.2669 10.7154 50.1567 15.4541 56.0464C15.7924 56.4783 16.2174 56.8346 16.7018 57.0922C17.1861 57.3499 17.7191 57.5032 18.2663 57.5424C18.444 57.5407 18.6217 57.5376 18.7994 57.5375C26.3395 57.5364 33.8796 57.5356 41.4196 57.5351C41.4871 57.5351 41.5547 57.5413 41.6221 57.5447C42.2004 57.5239 42.767 57.3762 43.2818 57.112C43.7966 56.8478 44.247 56.4736 44.601 56.0158C49.3279 50.1366 54.0543 44.257 58.7802 38.3769C59.1772 37.9039 59.4556 37.343 59.5923 36.7407C59.7289 36.1385 59.7197 35.5123 59.5656 34.9143V34.9143ZM51.6659 34.9853C51.5325 35.2273 51.3295 35.4236 51.0832 35.5488C50.8368 35.6739 50.5586 35.7221 50.2845 35.6872C49.6019 35.527 48.936 35.3027 48.2956 35.0173C47.7882 34.8303 47.2691 34.6764 46.7418 34.5567C46.6118 34.5162 46.474 34.5071 46.3398 34.5301C46.2056 34.5531 46.0787 34.6076 45.9695 34.689C45.9028 34.7342 45.8253 34.7608 45.7448 34.7658C45.6644 34.7709 45.5841 34.7543 45.5122 34.7179C45.3429 34.6712 45.2923 34.7331 45.2442 34.878C44.5958 36.8363 43.5751 38.6507 42.2381 40.2216C41.1416 41.5182 39.8424 42.6288 38.3911 43.5103C38.2364 43.6046 38.1873 43.6838 38.2798 43.8423C38.3329 43.9229 38.3638 44.016 38.3694 44.1123C38.3749 44.2087 38.355 44.3048 38.3116 44.3909C38.2744 44.4952 38.2615 44.6066 38.2737 44.7166C38.2859 44.8266 38.3229 44.9324 38.382 45.0261C38.7446 45.7818 39.1754 46.5029 39.6692 47.1803C40.0144 47.5897 40.2495 48.0804 40.3522 48.606C40.3935 48.8718 40.3462 49.1438 40.2176 49.38C40.089 49.6163 39.8861 49.8036 39.6405 49.9131C39.3861 50.0125 39.1065 50.027 38.8432 49.9544C38.5799 49.8818 38.3472 49.726 38.1798 49.5103C37.9064 49.132 37.7104 48.7035 37.6031 48.2493C37.3813 47.4423 37.0918 46.6553 36.7379 45.8968C36.6852 45.7578 36.6001 45.6334 36.4897 45.5339C36.3793 45.4344 36.2467 45.3627 36.103 45.3248C35.9211 45.283 35.8912 45.1171 35.8224 44.9889C35.7571 44.8671 35.7015 44.8168 35.5516 44.8733C34.3315 45.3311 33.0573 45.6296 31.7608 45.7613C30.4873 45.8967 29.2021 45.8784 27.9329 45.707C26.768 45.5497 25.6243 45.2631 24.5229 44.8525C24.3567 44.7903 24.2907 44.8441 24.2316 44.9774C24.1998 45.0776 24.1424 45.1677 24.0649 45.2388C23.9875 45.3098 23.8928 45.3593 23.7902 45.3823C23.5586 45.4307 23.437 45.6369 23.3346 45.8335C22.9617 46.6108 22.6618 47.4209 22.4385 48.2536C22.3362 48.6201 22.1929 48.9739 22.0111 49.3082C21.9305 49.4698 21.8166 49.6125 21.6768 49.7269C21.5371 49.8413 21.3747 49.9248 21.2003 49.9718C21.026 50.0189 20.8437 50.0285 20.6653 50C20.487 49.9714 20.3167 49.9055 20.1658 49.8064C19.9381 49.6269 19.7756 49.3776 19.7032 49.0969C19.6309 48.8161 19.6527 48.5194 19.7654 48.2522C19.928 47.8611 20.139 47.4919 20.3935 47.1533C20.8757 46.4885 21.2977 45.7819 21.6543 45.0421C21.712 44.9479 21.7481 44.842 21.7599 44.7322C21.7717 44.6224 21.7589 44.5113 21.7225 44.407C21.6791 44.3069 21.6616 44.1975 21.6714 44.0889C21.6813 43.9803 21.7182 43.8759 21.7788 43.7852C21.8512 43.6508 21.8368 43.5713 21.6916 43.4815C18.4531 41.5296 16.0152 38.4886 14.8144 34.903C14.7616 34.75 14.6828 34.6954 14.5414 34.7446C14.4371 34.7779 14.3264 34.7862 14.2182 34.769C14.1101 34.7518 14.0075 34.7095 13.9186 34.6455C13.8045 34.5897 13.6802 34.5575 13.5533 34.551C13.4264 34.5444 13.2995 34.5635 13.1802 34.6071C12.3929 34.8032 11.6225 35.0618 10.8763 35.3805C10.4706 35.5735 10.0315 35.6866 9.58301 35.7136C9.28005 35.7331 8.98011 35.6434 8.73761 35.4608C8.49511 35.2781 8.32608 35.0146 8.2612 34.718C8.22363 34.4212 8.2895 34.1205 8.44772 33.8665C8.60595 33.6126 8.84687 33.4209 9.12988 33.3238C9.66415 33.1599 10.2198 33.076 10.7786 33.0751C11.4794 33.0324 12.1756 32.9326 12.8601 32.7766C13.0865 32.7336 13.2877 32.605 13.4215 32.4174C13.4729 32.3301 13.5436 32.2557 13.6282 32.1998C13.7128 32.144 13.809 32.1082 13.9095 32.0953C14.1019 32.0741 14.1219 31.9529 14.0981 31.7908C13.9969 31.1033 13.9496 30.4091 13.9566 29.7143C13.9661 26.6835 14.8412 23.7184 16.4788 21.168C16.6098 20.9624 16.6328 20.8312 16.4147 20.7018C16.3473 20.651 16.2924 20.5855 16.2543 20.5102C16.2162 20.4349 16.1959 20.3519 16.1949 20.2675C16.1563 20.049 16.0382 19.8525 15.8633 19.7159C15.2233 19.2006 14.536 18.7469 13.8106 18.3608C13.4508 18.1715 13.113 17.9429 12.8033 17.6793C12.6303 17.5481 12.4945 17.3738 12.4096 17.1739C12.3247 16.974 12.2935 16.7554 12.3192 16.5397C12.3449 16.324 12.4265 16.1188 12.556 15.9444C12.6855 15.7701 12.8583 15.6326 13.0573 15.5456C13.285 15.4601 13.5314 15.4365 13.7711 15.4775C14.0109 15.5184 14.2354 15.6224 14.4218 15.7786C14.7354 16.0245 15.0239 16.3008 15.2831 16.6034C15.7986 17.189 16.3625 17.7301 16.9688 18.221C17.0775 18.3223 17.2085 18.3966 17.3512 18.4379C17.4939 18.4792 17.6443 18.4863 17.7903 18.4588C17.9651 18.4202 18.0615 18.5428 18.1675 18.6263C18.3008 18.7312 18.3805 18.7275 18.5025 18.6017C20.3436 16.6892 22.6384 15.2735 25.1736 14.4862C26.2124 14.1514 27.2855 13.9344 28.3727 13.8393C28.5647 13.8238 28.6965 13.7742 28.6557 13.5377C28.6437 13.467 28.6503 13.3943 28.6748 13.3269C28.6993 13.2594 28.7409 13.1995 28.7955 13.1529C29.1132 12.8409 29.092 12.4354 29.0705 11.9412C29.0229 11.1023 28.9261 10.2669 28.7807 9.43932C28.692 8.9949 28.7582 8.53348 28.9684 8.13198C29.0923 7.90785 29.2845 7.7292 29.5171 7.62206C29.7497 7.51492 30.0104 7.48489 30.2613 7.5364C30.5157 7.60548 30.7442 7.74804 30.9181 7.94625C31.092 8.14446 31.2036 8.38952 31.2389 8.65081C31.2758 9.21688 31.2328 9.78534 31.1113 10.3394C31.0039 11.0083 30.9446 11.6841 30.9337 12.3614C30.9196 12.5139 30.942 12.6676 30.9991 12.8097C31.0561 12.9518 31.1462 13.0783 31.2619 13.1787C31.4024 13.2909 31.3817 13.4533 31.3791 13.6019C31.3763 13.7579 31.4247 13.8259 31.5905 13.842C34.0321 14.0816 36.3845 14.8856 38.4619 16.1907C39.5397 16.8513 40.5304 17.6442 41.4111 18.551C41.5699 18.7156 41.6885 18.7711 41.8619 18.5933C41.9273 18.5268 42.0079 18.4772 42.0967 18.4488C42.1856 18.4204 42.28 18.4141 42.3718 18.4303C42.49 18.4413 42.6092 18.4278 42.722 18.3907C42.8348 18.3537 42.9387 18.2937 43.0273 18.2147C43.6474 17.7138 44.2235 17.1608 44.7493 16.5618C44.9992 16.2735 45.2755 16.0093 45.5746 15.7726C45.7205 15.649 45.8897 15.556 46.0722 15.4991C46.2547 15.4421 46.4468 15.4225 46.637 15.4412C46.8681 15.4555 47.089 15.5412 47.2694 15.6863C47.4498 15.8315 47.5807 16.029 47.6441 16.2516C47.72 16.5011 47.7196 16.7676 47.6431 17.0169C47.5666 17.2662 47.4175 17.4871 47.2148 17.6511C46.9169 17.9155 46.5867 18.141 46.232 18.3222C45.4829 18.7177 44.7753 19.1874 44.1201 19.7244C44.0212 19.798 43.9408 19.8936 43.8853 20.0037C43.8299 20.1138 43.8009 20.2353 43.8007 20.3586C43.8049 20.5795 43.62 20.6543 43.4962 20.7681C43.3777 20.877 43.3744 20.9494 43.462 21.0833C44.6992 22.9709 45.5201 25.1004 45.8701 27.3301C46.1108 28.7864 46.1358 30.2703 45.9443 31.734C45.9164 31.9415 45.9649 32.0524 46.1801 32.0857C46.2761 32.1006 46.3945 32.104 46.4486 32.2064C46.7269 32.733 47.2489 32.778 47.7469 32.8693C48.5643 33.0193 49.3959 33.0361 50.2191 33.1291C50.6285 33.1487 51.0205 33.3001 51.3369 33.5606C51.5428 33.7274 51.6869 33.9582 51.7466 34.2164C51.8062 34.4745 51.7778 34.7452 51.6659 34.9854V34.9853Z" fill="#326CE5"/>
<path d="M41.7328 34.0795C40.3661 33.8511 39.0002 33.6177 37.6338 33.3876C36.9343 33.2698 36.2343 33.155 35.5973 33.0493C35.4402 33.0477 35.2835 33.0638 35.13 33.0971C34.9732 33.146 34.8293 33.2295 34.709 33.3414C34.5887 33.4532 34.495 33.5906 34.4348 33.7434C34.3746 33.8963 34.3494 34.0607 34.3611 34.2245C34.3727 34.3884 34.421 34.5475 34.5023 34.6903C35.2805 36.5817 36.0671 38.4698 36.8451 40.3613C36.9121 40.5241 36.9588 40.5645 37.1253 40.4519C39.3144 38.9973 40.9969 36.8979 41.9398 34.4446C42.0636 34.1284 42.0597 34.1341 41.7328 34.0795Z" fill="#326CE5"/>
<path d="M21.2082 20.7812C22.8972 21.9702 24.5799 23.1683 26.267 24.3601C26.4341 24.4972 26.6373 24.583 26.8522 24.6069C27.067 24.6307 27.2842 24.5917 27.4772 24.4946C27.6703 24.3975 27.8311 24.2464 27.94 24.0596C28.0488 23.8729 28.1012 23.6586 28.0906 23.4427C28.2098 21.422 28.3247 19.4034 28.4352 17.3869C28.5083 17.128 28.3649 17.1107 28.1769 17.1448C28.1104 17.1569 28.0446 17.1738 27.9779 17.1845C25.4339 17.5773 23.07 18.7358 21.201 20.5057C21.0858 20.6132 21.0505 20.6701 21.2082 20.7812Z" fill="#326CE5"/>
<path d="M24.2812 28.0967C24.2237 27.7767 24.0463 27.4906 23.7851 27.2968C22.2785 25.943 20.7662 24.5955 19.2632 23.2378C19.1022 23.0924 19.0605 23.166 18.9812 23.3021C17.8561 25.1975 17.2534 27.3572 17.2344 29.5614C17.2468 30.1258 17.2379 30.5151 17.2871 30.9037C17.3061 31.0535 17.3201 31.1111 17.4943 31.0603C19.457 30.4881 21.4237 29.9292 23.3858 29.3546C23.6703 29.3045 23.9237 29.1445 24.0913 28.9092C24.2588 28.6738 24.327 28.382 24.2812 28.0967V28.0967Z" fill="#326CE5"/>
<path d="M41.0188 23.3163C40.9122 23.1333 40.8546 23.1263 40.6995 23.2673C39.7716 24.1102 38.8322 24.9404 37.8999 25.7785C37.2764 26.339 36.6388 26.8856 36.0435 27.4748C35.9103 27.5982 35.8113 27.754 35.7561 27.9271C35.701 28.1001 35.6916 28.2844 35.7289 28.4622C35.7661 28.6399 35.8488 28.805 35.9688 28.9413C36.0888 29.0776 36.2421 29.1805 36.4137 29.24C36.8321 29.398 37.26 29.5296 37.6949 29.6342C39.2995 30.1008 40.906 30.5604 42.5098 31.0297C42.6912 31.0828 42.743 31.0651 42.7598 30.8576C42.787 30.5189 42.7895 30.1812 42.7952 29.8428C42.7984 29.335 42.7668 28.8276 42.7007 28.3241C42.4923 26.5565 41.9196 24.8513 41.0188 23.3163Z" fill="#326CE5"/>
<path d="M31.0406 36.3705C30.9603 36.1676 30.8214 35.9932 30.6415 35.8697C30.4616 35.7461 30.2489 35.6789 30.0307 35.6768C29.8125 35.6747 29.5985 35.7377 29.4163 35.8577C29.234 35.9778 29.0917 36.1494 29.0074 36.3507C28.0091 38.1385 27.0268 39.9353 26.0307 41.7243C25.9429 41.8821 25.9775 41.9266 26.1323 41.9759C27.4279 42.3818 28.7777 42.5885 30.1354 42.5891C30.464 42.5922 30.7924 42.5734 31.1185 42.5328C32.0796 42.4519 33.0288 42.2646 33.9486 41.9744C34.0746 41.9353 34.1058 41.8908 34.0345 41.7626C33.0352 39.9659 32.0526 38.1599 31.0406 36.3705Z" fill="#326CE5"/>
<path d="M24.5459 33.0689C24.411 33.0847 24.2418 33.0969 24.0752 33.1253C22.126 33.4572 20.1779 33.7954 18.2273 34.1193C18.0303 34.152 18.0187 34.1973 18.0848 34.3672C19.0282 36.8294 20.7099 38.9397 22.8996 40.4087C23.0717 40.5264 23.1338 40.5166 23.2156 40.3148C23.7327 39.0381 24.2696 37.7694 24.7881 36.4933C25.1073 35.8128 25.3811 35.1119 25.6076 34.3952C25.6456 34.2358 25.6467 34.0699 25.6108 33.91C25.5749 33.7502 25.5031 33.6006 25.4007 33.4727C25.2983 33.3448 25.1681 33.242 25.02 33.172C24.8719 33.102 24.7097 33.0667 24.5459 33.0689V33.0689Z" fill="#326CE5"/>
<path d="M31.7416 19.9706C31.8114 21.1799 31.8745 22.3897 31.9515 23.5985C31.9708 23.8673 32.0916 24.1187 32.2893 24.3018C32.487 24.4849 32.7469 24.5861 33.0164 24.5848C33.3314 24.5715 33.6331 24.4545 33.8748 24.2521C34.444 23.8544 35.0081 23.4494 35.5747 23.048C36.6319 22.2989 37.6872 21.5469 38.7494 20.8049C38.9176 20.6875 38.9099 20.6261 38.7642 20.4948C38.4428 20.2053 38.1198 19.9186 37.7752 19.6574C36.0838 18.3563 34.0914 17.503 31.9826 17.1766C31.5835 17.1146 31.5843 17.109 31.5927 17.4446C31.644 18.3133 31.6937 19.1419 31.7416 19.9706Z" fill="#326CE5"/>
<path d="M27.8328 29.483C27.9539 30.0005 28.0733 30.5184 28.1911 31.0367C28.2015 31.0939 28.2263 31.1476 28.2633 31.1924C28.3003 31.2373 28.3481 31.272 28.4023 31.2932C28.8933 31.5189 29.3801 31.7542 29.8638 31.9951C29.9108 32.0213 29.9638 32.0349 30.0177 32.0344C30.0715 32.0339 30.1242 32.0194 30.1707 31.9923C30.6559 31.7536 31.1431 31.5191 31.6324 31.2889C31.6823 31.2688 31.726 31.2359 31.7592 31.1936C31.7924 31.1513 31.8139 31.1011 31.8215 31.0479C31.937 30.512 32.0638 29.9784 32.1946 29.4459C32.2076 29.3978 32.2077 29.347 32.1949 29.2988C32.182 29.2505 32.1566 29.2066 32.1213 29.1713C31.8733 28.8934 31.6431 28.6002 31.432 28.2934C31.3337 28.0933 31.1707 27.9324 30.9693 27.8367C30.7679 27.7411 30.5401 27.7164 30.323 27.7667C30.2218 27.777 30.1199 27.7779 30.0186 27.7694C29.7476 27.7694 29.4765 27.7759 29.2058 27.7667C29.1478 27.7613 29.0894 27.7714 29.0367 27.7961C28.9839 27.8207 28.9386 27.859 28.9056 27.907C28.5827 28.3205 28.254 28.7294 27.9195 29.1338C27.8767 29.1799 27.8463 29.2362 27.8311 29.2972C27.8159 29.3583 27.8165 29.4222 27.8328 29.483V29.483Z" fill="#326CE5"/>
</svg>
