<svg width="507" height="153" viewBox="0 0 507 153" fill="none" xmlns="http://www.w3.org/2000/svg">
<path id="test" d="M0.549969 3.5C1.3784 3.5 2.04997 2.82843 2.04997 2C2.04997 1.17157 1.3784 0.5 0.549969 0.5V3.5ZM10.5438 0.5C9.71535 0.5 9.04378 1.17157 9.04378 2C9.04378 2.82843 9.71535 3.5 10.5438 3.5V0.5ZM10.6437 3.5C11.4721 3.5 12.1437 2.82843 12.1437 2C12.1437 1.17157 11.4721 0.5 10.6437 0.5V3.5ZM20.6375 0.5C19.8091 0.5 19.1375 1.17157 19.1375 2C19.1375 2.82843 19.8091 3.5 20.6375 3.5V0.5ZM20.7375 3.5C21.5659 3.5 22.2375 2.82843 22.2375 2C22.2375 1.17157 21.5659 0.5 20.7375 0.5V3.5ZM30.7313 0.5C29.9029 0.5 29.2313 1.17157 29.2313 2C29.2313 2.82843 29.9029 3.5 30.7313 3.5V0.5ZM30.8312 3.5C31.6596 3.5 32.3312 2.82843 32.3312 2C32.3312 1.17157 31.6596 0.5 30.8312 0.5V3.5ZM40.825 0.5C39.9966 0.5 39.325 1.17157 39.325 2C39.325 2.82843 39.9966 3.5 40.825 3.5V0.5ZM40.925 3.5C41.7534 3.5 42.425 2.82843 42.425 2C42.425 1.17157 41.7534 0.5 40.925 0.5V3.5ZM50.9188 0.5C50.0904 0.5 49.4188 1.17157 49.4188 2C49.4188 2.82843 50.0904 3.5 50.9188 3.5V0.5ZM51.0187 3.5C51.8471 3.5 52.5187 2.82843 52.5187 2C52.5187 1.17157 51.8471 0.5 51.0187 0.5V3.5ZM61.0125 0.5C60.1841 0.5 59.5125 1.17157 59.5125 2C59.5125 2.82843 60.1841 3.5 61.0125 3.5V0.5ZM61.1125 3.5C61.9409 3.5 62.6125 2.82843 62.6125 2C62.6125 1.17157 61.9409 0.5 61.1125 0.5V3.5ZM71.1063 0.5C70.2779 0.5 69.6063 1.17157 69.6063 2C69.6063 2.82843 70.2779 3.5 71.1063 3.5V0.5ZM71.2062 3.5C72.0346 3.5 72.7062 2.82843 72.7062 2C72.7062 1.17157 72.0346 0.5 71.2062 0.5V3.5ZM81.2 0.5C80.3716 0.5 79.7 1.17157 79.7 2C79.7 2.82843 80.3716 3.5 81.2 3.5V0.5ZM81.3 3.5C82.1284 3.5 82.8 2.82843 82.8 2C82.8 1.17157 82.1284 0.5 81.3 0.5V3.5ZM91.2938 0.5C90.4653 0.5 89.7938 1.17157 89.7938 2C89.7938 2.82843 90.4653 3.5 91.2938 3.5V0.5ZM91.3937 3.5C92.2221 3.5 92.8937 2.82843 92.8937 2C92.8937 1.17157 92.2221 0.5 91.3937 0.5V3.5ZM101.388 0.5C100.559 0.5 99.8875 1.17157 99.8875 2C99.8875 2.82843 100.559 3.5 101.388 3.5V0.5ZM101.487 3.5C102.316 3.5 102.987 2.82843 102.987 2C102.987 1.17157 102.316 0.5 101.487 0.5V3.5ZM111.481 0.5C110.653 0.5 109.981 1.17157 109.981 2C109.981 2.82843 110.653 3.5 111.481 3.5V0.5ZM111.581 3.5C112.41 3.5 113.081 2.82843 113.081 2C113.081 1.17157 112.41 0.5 111.581 0.5V3.5ZM121.575 0.5C120.747 0.5 120.075 1.17157 120.075 2C120.075 2.82843 120.747 3.5 121.575 3.5V0.5ZM121.675 3.5C122.503 3.5 123.175 2.82843 123.175 2C123.175 1.17157 122.503 0.5 121.675 0.5V3.5ZM131.669 0.5C130.84 0.5 130.169 1.17157 130.169 2C130.169 2.82843 130.84 3.5 131.669 3.5V0.5ZM131.769 3.5C132.597 3.5 133.269 2.82843 133.269 2C133.269 1.17157 132.597 0.5 131.769 0.5V3.5ZM141.763 0.5C140.934 0.5 140.263 1.17157 140.263 2C140.263 2.82843 140.934 3.5 141.763 3.5V0.5ZM141.862 3.5C142.691 3.5 143.362 2.82843 143.362 2C143.362 1.17157 142.691 0.5 141.862 0.5V3.5ZM151.856 0.5C151.028 0.5 150.356 1.17157 150.356 2C150.356 2.82843 151.028 3.5 151.856 3.5V0.5ZM151.956 3.5C152.785 3.5 153.456 2.82843 153.456 2C153.456 1.17157 152.785 0.5 151.956 0.5V3.5ZM161.95 0.5C161.122 0.5 160.45 1.17157 160.45 2C160.45 2.82843 161.122 3.5 161.95 3.5V0.5ZM162.05 3.5C162.878 3.5 163.55 2.82843 163.55 2C163.55 1.17157 162.878 0.5 162.05 0.5V3.5ZM172.044 0.5C171.215 0.5 170.544 1.17157 170.544 2C170.544 2.82843 171.215 3.5 172.044 3.5V0.5ZM172.144 3.5C172.972 3.5 173.644 2.82843 173.644 2C173.644 1.17157 172.972 0.5 172.144 0.5V3.5ZM182.138 0.5C181.309 0.5 180.638 1.17157 180.638 2C180.638 2.82843 181.309 3.5 182.138 3.5V0.5ZM182.237 3.5C183.066 3.5 183.737 2.82843 183.737 2C183.737 1.17157 183.066 0.5 182.237 0.5V3.5ZM192.231 0.5C191.403 0.5 190.731 1.17157 190.731 2C190.731 2.82843 191.403 3.5 192.231 3.5V0.5ZM192.331 3.5C193.16 3.5 193.831 2.82843 193.831 2C193.831 1.17157 193.16 0.5 192.331 0.5V3.5ZM202.325 0.5C201.497 0.5 200.825 1.17157 200.825 2C200.825 2.82843 201.497 3.5 202.325 3.5V0.5ZM202.425 3.5C203.253 3.5 203.925 2.82843 203.925 2C203.925 1.17157 203.253 0.5 202.425 0.5V3.5ZM212.419 0.5C211.59 0.5 210.919 1.17157 210.919 2C210.919 2.82843 211.59 3.5 212.419 3.5V0.5ZM212.519 3.5C213.347 3.5 214.019 2.82843 214.019 2C214.019 1.17157 213.347 0.5 212.519 0.5V3.5ZM222.513 0.5C221.684 0.5 221.013 1.17157 221.013 2C221.013 2.82843 221.684 3.5 222.513 3.5V0.5ZM222.612 3.5C223.441 3.5 224.112 2.82843 224.112 2C224.112 1.17157 223.441 0.5 222.612 0.5V3.5ZM232.606 0.5C231.778 0.5 231.106 1.17157 231.106 2C231.106 2.82843 231.778 3.5 232.606 3.5V0.5ZM232.706 3.5C233.535 3.5 234.206 2.82843 234.206 2C234.206 1.17157 233.535 0.5 232.706 0.5V3.5ZM242.7 0.5C241.872 0.5 241.2 1.17157 241.2 2C241.2 2.82843 241.872 3.5 242.7 3.5V0.5ZM242.8 3.5C243.628 3.5 244.3 2.82843 244.3 2C244.3 1.17157 243.628 0.5 242.8 0.5V3.5ZM252.794 0.5C251.965 0.5 251.294 1.17157 251.294 2C251.294 2.82843 251.965 3.5 252.794 3.5V0.5ZM252.894 3.5C253.722 3.5 254.394 2.82843 254.394 2C254.394 1.17157 253.722 0.5 252.894 0.5V3.5ZM262.888 0.5C262.059 0.5 261.388 1.17157 261.388 2C261.388 2.82843 262.059 3.5 262.888 3.5V0.5ZM262.987 3.5C263.816 3.5 264.487 2.82843 264.487 2C264.487 1.17157 263.816 0.5 262.987 0.5V3.5ZM272.981 0.5C272.153 0.5 271.481 1.17157 271.481 2C271.481 2.82843 272.153 3.5 272.981 3.5V0.5ZM273.081 3.5C273.91 3.5 274.581 2.82843 274.581 2C274.581 1.17157 273.91 0.5 273.081 0.5V3.5ZM283.075 0.5C282.247 0.5 281.575 1.17157 281.575 2C281.575 2.82843 282.247 3.5 283.075 3.5V0.5ZM283.175 3.5C284.003 3.5 284.675 2.82843 284.675 2C284.675 1.17157 284.003 0.5 283.175 0.5V3.5ZM293.169 0.5C292.34 0.5 291.669 1.17157 291.669 2C291.669 2.82843 292.34 3.5 293.169 3.5V0.5ZM293.269 3.5C294.097 3.5 294.769 2.82843 294.769 2C294.769 1.17157 294.097 0.5 293.269 0.5V3.5ZM303.263 0.5C302.434 0.5 301.763 1.17157 301.763 2C301.763 2.82843 302.434 3.5 303.263 3.5V0.5ZM303.362 3.5C304.191 3.5 304.862 2.82843 304.862 2C304.862 1.17157 304.191 0.5 303.362 0.5V3.5ZM313.356 0.5C312.528 0.5 311.856 1.17157 311.856 2C311.856 2.82843 312.528 3.5 313.356 3.5V0.5ZM313.456 3.5C314.285 3.5 314.956 2.82843 314.956 2C314.956 1.17157 314.285 0.5 313.456 0.5V3.5ZM323.45 0.5C322.622 0.5 321.95 1.17157 321.95 2C321.95 2.82843 322.622 3.5 323.45 3.5V0.5ZM323.55 3.5C324.378 3.5 325.05 2.82843 325.05 2C325.05 1.17157 324.378 0.5 323.55 0.5V3.5ZM333.544 0.5C332.715 0.5 332.044 1.17157 332.044 2C332.044 2.82843 332.715 3.5 333.544 3.5V0.5ZM333.644 3.5C334.472 3.5 335.144 2.82843 335.144 2C335.144 1.17157 334.472 0.5 333.644 0.5V3.5ZM343.638 0.5C342.809 0.5 342.138 1.17157 342.138 2C342.138 2.82843 342.809 3.5 343.638 3.5V0.5ZM343.737 3.5C344.566 3.5 345.237 2.82843 345.237 2C345.237 1.17157 344.566 0.5 343.737 0.5V3.5ZM353.731 0.5C352.903 0.5 352.231 1.17157 352.231 2C352.231 2.82843 352.903 3.5 353.731 3.5V0.5ZM353.831 3.5C354.66 3.5 355.331 2.82843 355.331 2C355.331 1.17157 354.66 0.5 353.831 0.5V3.5ZM363.825 0.5C362.997 0.5 362.325 1.17157 362.325 2C362.325 2.82843 362.997 3.5 363.825 3.5V0.5ZM363.925 3.5C364.753 3.5 365.425 2.82843 365.425 2C365.425 1.17157 364.753 0.5 363.925 0.5V3.5ZM373.919 0.5C373.09 0.5 372.419 1.17157 372.419 2C372.419 2.82843 373.09 3.5 373.919 3.5V0.5ZM374.019 3.5C374.847 3.5 375.519 2.82843 375.519 2C375.519 1.17157 374.847 0.5 374.019 0.5V3.5ZM384.013 0.5C383.184 0.5 382.513 1.17157 382.513 2C382.513 2.82843 383.184 3.5 384.013 3.5V0.5ZM384.112 3.5C384.941 3.5 385.612 2.82843 385.612 2C385.612 1.17157 384.941 0.5 384.112 0.5V3.5ZM394.106 0.5C393.278 0.5 392.606 1.17157 392.606 2C392.606 2.82843 393.278 3.5 394.106 3.5V0.5ZM394.206 3.5C395.035 3.5 395.706 2.82843 395.706 2C395.706 1.17157 395.035 0.5 394.206 0.5V3.5ZM404.2 0.5C403.372 0.5 402.7 1.17157 402.7 2C402.7 2.82843 403.372 3.5 404.2 3.5V0.5ZM404.3 3.5C405.128 3.5 405.8 2.82843 405.8 2C405.8 1.17157 405.128 0.5 404.3 0.5V3.5ZM414.294 0.5C413.465 0.5 412.794 1.17157 412.794 2C412.794 2.82843 413.465 3.5 414.294 3.5V0.5ZM414.394 3.5C415.222 3.5 415.894 2.82843 415.894 2C415.894 1.17157 415.222 0.5 414.394 0.5V3.5ZM424.388 0.5C423.559 0.5 422.888 1.17157 422.888 2C422.888 2.82843 423.559 3.5 424.388 3.5V0.5ZM424.487 3.5C425.316 3.5 425.987 2.82843 425.987 2C425.987 1.17157 425.316 0.5 424.487 0.5V3.5ZM434.481 0.5C433.653 0.5 432.981 1.17157 432.981 2C432.981 2.82843 433.653 3.5 434.481 3.5V0.5ZM434.581 3.5C435.41 3.5 436.081 2.82843 436.081 2C436.081 1.17157 435.41 0.5 434.581 0.5V3.5ZM444.575 0.5C443.747 0.5 443.075 1.17157 443.075 2C443.075 2.82843 443.747 3.5 444.575 3.5V0.5ZM444.675 3.5C445.503 3.5 446.175 2.82843 446.175 2C446.175 1.17157 445.503 0.5 444.675 0.5V3.5ZM454.669 0.5C453.84 0.5 453.169 1.17157 453.169 2C453.169 2.82843 453.84 3.5 454.669 3.5V0.5ZM454.769 3.5C455.597 3.5 456.269 2.82843 456.269 2C456.269 1.17157 455.597 0.5 454.769 0.5V3.5ZM464.763 0.5C463.934 0.5 463.263 1.17157 463.263 2C463.263 2.82843 463.934 3.5 464.763 3.5V0.5ZM464.862 3.5C465.691 3.5 466.362 2.82843 466.362 2C466.362 1.17157 465.691 0.5 464.862 0.5V3.5ZM474.856 0.5C474.028 0.5 473.356 1.17157 473.356 2C473.356 2.82843 474.028 3.5 474.856 3.5V0.5ZM474.956 3.5C475.785 3.5 476.456 2.82843 476.456 2C476.456 1.17157 475.785 0.5 474.956 0.5V3.5ZM484.95 0.5C484.122 0.5 483.45 1.17157 483.45 2C483.45 2.82843 484.122 3.5 484.95 3.5V0.5ZM485.048 3.50006C485.877 3.50218 486.55 2.83232 486.552 2.00389C486.554 1.17547 485.884 0.502185 485.056 0.500071L485.048 3.50006ZM495.705 3.35038C494.986 2.93736 494.069 3.1847 493.656 3.90283C493.243 4.62095 493.491 5.53793 494.209 5.95095L495.705 3.35038ZM494.292 5.99897C495.008 6.41571 495.926 6.17314 496.343 5.45716C496.76 4.74119 496.517 3.82294 495.801 3.4062L494.292 5.99897ZM503.594 11.199C503.177 10.483 502.259 10.2404 501.543 10.6572C500.827 11.0739 500.584 11.9922 501.001 12.7081L503.594 11.199ZM501.049 12.7911C501.462 13.5093 502.379 13.7566 503.097 13.3436C503.815 12.9306 504.063 12.0136 503.65 11.2955L501.049 12.7911ZM506.5 21.944C506.498 21.1156 505.825 20.4458 504.996 20.4479C504.168 20.45 503.498 21.1233 503.5 21.9517L506.5 21.944ZM503.5 22.0499C503.5 22.8783 504.172 23.5499 505 23.5499C505.828 23.5499 506.5 22.8783 506.5 22.0499H503.5ZM506.5 32.027C506.5 31.1986 505.828 30.527 505 30.527C504.172 30.527 503.5 31.1986 503.5 32.027H506.5ZM503.5 32.1268C503.5 32.9552 504.172 33.6268 505 33.6268C505.828 33.6268 506.5 32.9552 506.5 32.1268H503.5ZM506.5 42.104C506.5 41.2755 505.828 40.604 505 40.604C504.172 40.604 503.5 41.2755 503.5 42.104H506.5ZM503.5 42.2037C503.5 43.0322 504.172 43.7037 505 43.7037C505.828 43.7037 506.5 43.0322 506.5 42.2037H503.5ZM506.5 52.1809C506.5 51.3525 505.828 50.6809 505 50.6809C504.172 50.6809 503.5 51.3525 503.5 52.1809H506.5ZM503.5 52.2807C503.5 53.1091 504.172 53.7807 505 53.7807C505.828 53.7807 506.5 53.1091 506.5 52.2807H503.5ZM506.5 62.2578C506.5 61.4294 505.828 60.7578 505 60.7578C504.172 60.7578 503.5 61.4294 503.5 62.2578H506.5ZM503.5 62.3576C503.5 63.186 504.172 63.8576 505 63.8576C505.828 63.8576 506.5 63.186 506.5 62.3576H503.5ZM506.5 72.3347C506.5 71.5063 505.828 70.8347 505 70.8347C504.172 70.8347 503.5 71.5063 503.5 72.3347H506.5ZM503.5 72.4345C503.5 73.2629 504.172 73.9345 505 73.9345C505.828 73.9345 506.5 73.2629 506.5 72.4345H503.5ZM506.5 82.4117C506.5 81.5832 505.828 80.9117 505 80.9117C504.172 80.9117 503.5 81.5832 503.5 82.4117H506.5ZM503.5 82.5114C503.5 83.3399 504.172 84.0114 505 84.0114C505.828 84.0114 506.5 83.3399 506.5 82.5114H503.5ZM506.5 92.4886C506.5 91.6601 505.828 90.9886 505 90.9886C504.172 90.9886 503.5 91.6601 503.5 92.4886H506.5ZM503.5 92.5883C503.5 93.4168 504.172 94.0883 505 94.0883C505.828 94.0883 506.5 93.4168 506.5 92.5883H503.5ZM506.5 102.565C506.5 101.737 505.828 101.065 505 101.065C504.172 101.065 503.5 101.737 503.5 102.565H506.5ZM503.5 102.665C503.5 103.494 504.172 104.165 505 104.165C505.828 104.165 506.5 103.494 506.5 102.665H503.5ZM506.5 112.642C506.5 111.814 505.828 111.142 505 111.142C504.172 111.142 503.5 111.814 503.5 112.642H506.5ZM503.5 112.742C503.5 113.571 504.172 114.242 505 114.242C505.828 114.242 506.5 113.571 506.5 112.742H503.5ZM506.5 122.719C506.5 121.891 505.828 121.219 505 121.219C504.172 121.219 503.5 121.891 503.5 122.719H506.5ZM503.5 122.819C503.5 123.648 504.172 124.319 505 124.319C505.828 124.319 506.5 123.648 506.5 122.819H503.5ZM506.5 132.796C506.5 131.968 505.828 131.296 505 131.296C504.172 131.296 503.5 131.968 503.5 132.796H506.5ZM503.5 132.896C503.5 133.724 504.172 134.396 505 134.396C505.828 134.396 506.5 133.724 506.5 132.896H503.5ZM506.5 142.873C506.5 142.045 505.828 141.373 505 141.373C504.172 141.373 503.5 142.045 503.5 142.873H506.5ZM503.5 142.973C503.5 143.801 504.172 144.473 505 144.473C505.828 144.473 506.5 143.801 506.5 142.973H503.5ZM506.5 152.95C506.5 152.122 505.828 151.45 505 151.45C504.172 151.45 503.5 152.122 503.5 152.95H506.5ZM0.5 3.5H0.549969V0.5H0.5V3.5ZM10.5438 3.5H10.6437V0.5H10.5438V3.5ZM20.6375 3.5H20.7375V0.5H20.6375V3.5ZM30.7313 3.5H30.8312V0.5H30.7313V3.5ZM40.825 3.5H40.925V0.5H40.825V3.5ZM50.9188 3.5H51.0187V0.5H50.9188V3.5ZM61.0125 3.5H61.1125V0.5H61.0125V3.5ZM71.1063 3.5H71.2062V0.5H71.1063V3.5ZM81.2 3.5H81.3V0.5H81.2V3.5ZM91.2938 3.5H91.3937V0.5H91.2938V3.5ZM101.388 3.5H101.487V0.5H101.388V3.5ZM111.481 3.5H111.581V0.5H111.481V3.5ZM121.575 3.5H121.675V0.5H121.575V3.5ZM131.669 3.5H131.769V0.5H131.669V3.5ZM141.763 3.5H141.862V0.5H141.763V3.5ZM151.856 3.5H151.956V0.5H151.856V3.5ZM161.95 3.5H162.05V0.5H161.95V3.5ZM172.044 3.5H172.144V0.5H172.044V3.5ZM182.138 3.5H182.237V0.5H182.138V3.5ZM192.231 3.5H192.331V0.5H192.231V3.5ZM202.325 3.5H202.425V0.5H202.325V3.5ZM212.419 3.5H212.519V0.5H212.419V3.5ZM222.513 3.5H222.612V0.5H222.513V3.5ZM232.606 3.5H232.706V0.5H232.606V3.5ZM242.7 3.5H242.8V0.5H242.7V3.5ZM252.794 3.5H252.894V0.5H252.794V3.5ZM262.888 3.5H262.987V0.5H262.888V3.5ZM272.981 3.5H273.081V0.5H272.981V3.5ZM283.075 3.5H283.175V0.5H283.075V3.5ZM293.169 3.5H293.269V0.5H293.169V3.5ZM303.263 3.5H303.362V0.5H303.263V3.5ZM313.356 3.5H313.456V0.5H313.356V3.5ZM323.45 3.5H323.55V0.5H323.45V3.5ZM333.544 3.5H333.644V0.5H333.544V3.5ZM343.638 3.5H343.737V0.5H343.638V3.5ZM353.731 3.5H353.831V0.5H353.731V3.5ZM363.825 3.5H363.925V0.5H363.825V3.5ZM373.919 3.5H374.019V0.5H373.919V3.5ZM384.013 3.5H384.112V0.5H384.013V3.5ZM394.106 3.5H394.206V0.5H394.106V3.5ZM404.2 3.5H404.3V0.5H404.2V3.5ZM414.294 3.5H414.394V0.5H414.294V3.5ZM424.388 3.5H424.487V0.5H424.388V3.5ZM434.481 3.5H434.581V0.5H434.481V3.5ZM444.575 3.5H444.675V0.5H444.575V3.5ZM454.669 3.5H454.769V0.5H454.669V3.5ZM464.763 3.5H464.862V0.5H464.763V3.5ZM474.856 3.5H474.956V0.5H474.856V3.5ZM484.95 3.5H485V0.5H484.95V3.5ZM485 3.5C485.016 3.5 485.032 3.50002 485.048 3.50006L485.056 0.500071C485.037 0.500024 485.019 0.5 485 0.5V3.5ZM494.209 5.95095C494.237 5.96689 494.264 5.98289 494.292 5.99897L495.801 3.4062C495.769 3.38751 495.737 3.3689 495.705 3.35038L494.209 5.95095ZM501.001 12.7081C501.017 12.7358 501.033 12.7634 501.049 12.7911L503.65 11.2955C503.631 11.2633 503.612 11.2311 503.594 11.199L501.001 12.7081ZM503.5 21.9517C503.5 21.9678 503.5 21.9839 503.5 22H506.5C506.5 21.9813 506.5 21.9627 506.5 21.944L503.5 21.9517ZM503.5 22V22.0499H506.5V22H503.5ZM503.5 32.027V32.1268H506.5V32.027H503.5ZM503.5 42.104V42.2037H506.5V42.104H503.5ZM503.5 52.1809V52.2807H506.5V52.1809H503.5ZM503.5 62.2578V62.3576H506.5V62.2578H503.5ZM503.5 72.3347V72.4345H506.5V72.3347H503.5ZM503.5 82.4117V82.5114H506.5V82.4117H503.5ZM503.5 92.4886V92.5883H506.5V92.4886H503.5ZM503.5 102.565V102.665H506.5V102.565H503.5ZM503.5 112.642V112.742H506.5V112.642H503.5ZM503.5 122.719V122.819H506.5V122.719H503.5ZM503.5 132.796V132.896H506.5V132.796H503.5ZM503.5 142.873V142.973H506.5V142.873H503.5ZM503.5 152.95V153H506.5V152.95H503.5Z" fill="#C4C4C4"/>
</svg>
