<svg width="506" height="146" viewBox="0 0 506 146" fill="none" xmlns="http://www.w3.org/2000/svg">
<path d="M505.45 3.5C504.622 3.5 503.95 2.82843 503.95 2C503.95 1.17157 504.622 0.5 505.45 0.5V3.5ZM495.477 0.5C496.305 0.5 496.977 1.17157 496.977 2C496.977 2.82843 496.305 3.5 495.477 3.5V0.5ZM495.377 3.5C494.549 3.5 493.877 2.82843 493.877 2C493.877 1.17157 494.549 0.5 495.377 0.5V3.5ZM485.404 0.5C486.232 0.5 486.904 1.17157 486.904 2C486.904 2.82843 486.232 3.5 485.404 3.5V0.5ZM485.304 3.5C484.476 3.5 483.804 2.82843 483.804 2C483.804 1.17157 484.476 0.5 485.304 0.5V3.5ZM475.331 0.5C476.16 0.5 476.831 1.17157 476.831 2C476.831 2.82843 476.16 3.5 475.331 3.5V0.5ZM475.231 3.5C474.403 3.5 473.731 2.82843 473.731 2C473.731 1.17157 474.403 0.5 475.231 0.5V3.5ZM465.258 0.5C466.087 0.5 466.758 1.17157 466.758 2C466.758 2.82843 466.087 3.5 465.258 3.5V0.5ZM465.158 3.5C464.33 3.5 463.658 2.82843 463.658 2C463.658 1.17157 464.33 0.5 465.158 0.5V3.5ZM455.185 0.5C456.014 0.5 456.685 1.17157 456.685 2C456.685 2.82843 456.014 3.5 455.185 3.5V0.5ZM455.086 3.5C454.257 3.5 453.586 2.82843 453.586 2C453.586 1.17157 454.257 0.5 455.086 0.5V3.5ZM445.112 0.5C445.941 0.5 446.612 1.17157 446.612 2C446.612 2.82843 445.941 3.5 445.112 3.5V0.5ZM445.013 3.5C444.184 3.5 443.513 2.82843 443.513 2C443.513 1.17157 444.184 0.5 445.013 0.5V3.5ZM435.039 0.5C435.868 0.5 436.539 1.17157 436.539 2C436.539 2.82843 435.868 3.5 435.039 3.5V0.5ZM434.94 3.5C434.111 3.5 433.44 2.82843 433.44 2C433.44 1.17157 434.111 0.5 434.94 0.5V3.5ZM424.967 0.5C425.795 0.5 426.467 1.17157 426.467 2C426.467 2.82843 425.795 3.5 424.967 3.5V0.5ZM424.867 3.5C424.038 3.5 423.367 2.82843 423.367 2C423.367 1.17157 424.038 0.5 424.867 0.5V3.5ZM414.894 0.5C415.722 0.5 416.394 1.17157 416.394 2C416.394 2.82843 415.722 3.5 414.894 3.5V0.5ZM414.794 3.5C413.965 3.5 413.294 2.82843 413.294 2C413.294 1.17157 413.965 0.5 414.794 0.5V3.5ZM404.821 0.5C405.649 0.5 406.321 1.17157 406.321 2C406.321 2.82843 405.649 3.5 404.821 3.5V0.5ZM404.721 3.5C403.893 3.5 403.221 2.82843 403.221 2C403.221 1.17157 403.893 0.5 404.721 0.5V3.5ZM394.748 0.5C395.576 0.5 396.248 1.17157 396.248 2C396.248 2.82843 395.576 3.5 394.748 3.5V0.5ZM394.648 3.5C393.82 3.5 393.148 2.82843 393.148 2C393.148 1.17157 393.82 0.5 394.648 0.5V3.5ZM384.675 0.5C385.503 0.5 386.175 1.17157 386.175 2C386.175 2.82843 385.503 3.5 384.675 3.5V0.5ZM384.575 3.5C383.747 3.5 383.075 2.82843 383.075 2C383.075 1.17157 383.747 0.5 384.575 0.5V3.5ZM374.602 0.5C375.43 0.5 376.102 1.17157 376.102 2C376.102 2.82843 375.43 3.5 374.602 3.5V0.5ZM374.502 3.5C373.674 3.5 373.002 2.82843 373.002 2C373.002 1.17157 373.674 0.5 374.502 0.5V3.5ZM364.529 0.5C365.357 0.5 366.029 1.17157 366.029 2C366.029 2.82843 365.357 3.5 364.529 3.5V0.5ZM364.429 3.5C363.601 3.5 362.929 2.82843 362.929 2C362.929 1.17157 363.601 0.5 364.429 0.5V3.5ZM354.456 0.5C355.285 0.5 355.956 1.17157 355.956 2C355.956 2.82843 355.285 3.5 354.456 3.5V0.5ZM354.356 3.5C353.528 3.5 352.856 2.82843 352.856 2C352.856 1.17157 353.528 0.5 354.356 0.5V3.5ZM344.383 0.5C345.212 0.5 345.883 1.17157 345.883 2C345.883 2.82843 345.212 3.5 344.383 3.5V0.5ZM344.283 3.5C343.455 3.5 342.783 2.82843 342.783 2C342.783 1.17157 343.455 0.5 344.283 0.5V3.5ZM334.31 0.5C335.139 0.5 335.81 1.17157 335.81 2C335.81 2.82843 335.139 3.5 334.31 3.5V0.5ZM334.211 3.5C333.382 3.5 332.711 2.82843 332.711 2C332.711 1.17157 333.382 0.5 334.211 0.5V3.5ZM324.237 0.5C325.066 0.5 325.737 1.17157 325.737 2C325.737 2.82843 325.066 3.5 324.237 3.5V0.5ZM324.138 3.5C323.309 3.5 322.638 2.82843 322.638 2C322.638 1.17157 323.309 0.5 324.138 0.5V3.5ZM314.164 0.5C314.993 0.5 315.664 1.17157 315.664 2C315.664 2.82843 314.993 3.5 314.164 3.5V0.5ZM314.065 3.5C313.236 3.5 312.565 2.82843 312.565 2C312.565 1.17157 313.236 0.5 314.065 0.5V3.5ZM304.092 0.5C304.92 0.5 305.592 1.17157 305.592 2C305.592 2.82843 304.92 3.5 304.092 3.5V0.5ZM303.992 3.5C303.163 3.5 302.492 2.82843 302.492 2C302.492 1.17157 303.163 0.5 303.992 0.5V3.5ZM294.019 0.5C294.847 0.5 295.519 1.17157 295.519 2C295.519 2.82843 294.847 3.5 294.019 3.5V0.5ZM293.919 3.5C293.09 3.5 292.419 2.82843 292.419 2C292.419 1.17157 293.09 0.5 293.919 0.5V3.5ZM283.946 0.5C284.774 0.5 285.446 1.17157 285.446 2C285.446 2.82843 284.774 3.5 283.946 3.5V0.5ZM283.846 3.5C283.018 3.5 282.346 2.82843 282.346 2C282.346 1.17157 283.018 0.5 283.846 0.5V3.5ZM273.873 0.5C274.701 0.5 275.373 1.17157 275.373 2C275.373 2.82843 274.701 3.5 273.873 3.5V0.5ZM273.773 3.5C272.945 3.5 272.273 2.82843 272.273 2C272.273 1.17157 272.945 0.5 273.773 0.5V3.5ZM263.8 0.5C264.628 0.5 265.3 1.17157 265.3 2C265.3 2.82843 264.628 3.5 263.8 3.5V0.5ZM263.7 3.5C262.872 3.5 262.2 2.82843 262.2 2C262.2 1.17157 262.872 0.5 263.7 0.5V3.5ZM253.727 0.5C254.555 0.5 255.227 1.17157 255.227 2C255.227 2.82843 254.555 3.5 253.727 3.5V0.5ZM253.627 3.5C252.799 3.5 252.127 2.82843 252.127 2C252.127 1.17157 252.799 0.5 253.627 0.5V3.5ZM243.654 0.5C244.482 0.5 245.154 1.17157 245.154 2C245.154 2.82843 244.482 3.5 243.654 3.5V0.5ZM243.554 3.5C242.726 3.5 242.054 2.82843 242.054 2C242.054 1.17157 242.726 0.5 243.554 0.5V3.5ZM233.581 0.5C234.41 0.5 235.081 1.17157 235.081 2C235.081 2.82843 234.41 3.5 233.581 3.5V0.5ZM233.481 3.5C232.653 3.5 231.981 2.82843 231.981 2C231.981 1.17157 232.653 0.5 233.481 0.5V3.5ZM223.508 0.5C224.337 0.5 225.008 1.17157 225.008 2C225.008 2.82843 224.337 3.5 223.508 3.5V0.5ZM223.408 3.5C222.58 3.5 221.908 2.82843 221.908 2C221.908 1.17157 222.58 0.5 223.408 0.5V3.5ZM213.435 0.5C214.264 0.5 214.935 1.17157 214.935 2C214.935 2.82843 214.264 3.5 213.435 3.5V0.5ZM213.336 3.5C212.507 3.5 211.836 2.82843 211.836 2C211.836 1.17157 212.507 0.5 213.336 0.5V3.5ZM203.362 0.5C204.191 0.5 204.862 1.17157 204.862 2C204.862 2.82843 204.191 3.5 203.362 3.5V0.5ZM203.263 3.5C202.434 3.5 201.763 2.82843 201.763 2C201.763 1.17157 202.434 0.5 203.263 0.5V3.5ZM193.289 0.5C194.118 0.5 194.789 1.17157 194.789 2C194.789 2.82843 194.118 3.5 193.289 3.5V0.5ZM193.19 3.5C192.361 3.5 191.69 2.82843 191.69 2C191.69 1.17157 192.361 0.5 193.19 0.5V3.5ZM183.217 0.5C184.045 0.5 184.717 1.17157 184.717 2C184.717 2.82843 184.045 3.5 183.217 3.5V0.5ZM183.117 3.5C182.288 3.5 181.617 2.82843 181.617 2C181.617 1.17157 182.288 0.5 183.117 0.5V3.5ZM173.144 0.5C173.972 0.5 174.644 1.17157 174.644 2C174.644 2.82843 173.972 3.5 173.144 3.5V0.5ZM173.044 3.5C172.216 3.5 171.544 2.82843 171.544 2C171.544 1.17157 172.216 0.5 173.044 0.5V3.5ZM163.071 0.5C163.899 0.5 164.571 1.17157 164.571 2C164.571 2.82843 163.899 3.5 163.071 3.5V0.5ZM162.971 3.5C162.143 3.5 161.471 2.82843 161.471 2C161.471 1.17157 162.143 0.5 162.971 0.5V3.5ZM152.998 0.5C153.826 0.5 154.498 1.17157 154.498 2C154.498 2.82843 153.826 3.5 152.998 3.5V0.5ZM152.898 3.5C152.07 3.5 151.398 2.82843 151.398 2C151.398 1.17157 152.07 0.5 152.898 0.5V3.5ZM142.925 0.5C143.753 0.5 144.425 1.17157 144.425 2C144.425 2.82843 143.753 3.5 142.925 3.5V0.5ZM142.825 3.5C141.997 3.5 141.325 2.82843 141.325 2C141.325 1.17157 141.997 0.5 142.825 0.5V3.5ZM132.852 0.5C133.68 0.5 134.352 1.17157 134.352 2C134.352 2.82843 133.68 3.5 132.852 3.5V0.5ZM132.752 3.5C131.924 3.5 131.252 2.82843 131.252 2C131.252 1.17157 131.924 0.5 132.752 0.5V3.5ZM122.779 0.5C123.608 0.5 124.279 1.17157 124.279 2C124.279 2.82843 123.608 3.5 122.779 3.5V0.5ZM122.679 3.5C121.851 3.5 121.179 2.82843 121.179 2C121.179 1.17157 121.851 0.5 122.679 0.5V3.5ZM112.706 0.5C113.535 0.5 114.206 1.17157 114.206 2C114.206 2.82843 113.535 3.5 112.706 3.5V0.5ZM112.606 3.5C111.778 3.5 111.106 2.82843 111.106 2C111.106 1.17157 111.778 0.5 112.606 0.5V3.5ZM102.633 0.5C103.462 0.5 104.133 1.17157 104.133 2C104.133 2.82843 103.462 3.5 102.633 3.5V0.5ZM102.534 3.5C101.705 3.5 101.034 2.82843 101.034 2C101.034 1.17157 101.705 0.5 102.534 0.5V3.5ZM92.5604 0.5C93.3888 0.5 94.0604 1.17157 94.0604 2C94.0604 2.82843 93.3888 3.5 92.5604 3.5V0.5ZM92.4607 3.5C91.6322 3.5 90.9607 2.82843 90.9607 2C90.9607 1.17157 91.6322 0.5 92.4607 0.5V3.5ZM82.4875 0.5C83.3159 0.5 83.9875 1.17157 83.9875 2C83.9875 2.82843 83.3159 3.5 82.4875 3.5V0.5ZM82.3878 3.5C81.5593 3.5 80.8878 2.82843 80.8878 2C80.8878 1.17157 81.5593 0.5 82.3878 0.5V3.5ZM72.4146 0.5C73.243 0.5 73.9146 1.17157 73.9146 2C73.9146 2.82843 73.243 3.5 72.4146 3.5V0.5ZM72.3149 3.5C71.4864 3.5 70.8149 2.82843 70.8149 2C70.8149 1.17157 71.4864 0.5 72.3149 0.5V3.5ZM62.3417 0.5C63.1701 0.5 63.8417 1.17157 63.8417 2C63.8417 2.82843 63.1701 3.5 62.3417 3.5V0.5ZM62.242 3.5C61.4135 3.5 60.742 2.82843 60.742 2C60.742 1.17157 61.4135 0.5 62.242 0.5V3.5ZM52.2688 0.5C53.0972 0.5 53.7688 1.17157 53.7688 2C53.7688 2.82843 53.0972 3.5 52.2688 3.5V0.5ZM52.169 3.5C51.3406 3.5 50.669 2.82843 50.669 2C50.669 1.17157 51.3406 0.5 52.169 0.5V3.5ZM42.1959 0.5C43.0243 0.5 43.6959 1.17157 43.6959 2C43.6959 2.82843 43.0243 3.5 42.1959 3.5V0.5ZM42.0961 3.5C41.2677 3.5 40.5961 2.82843 40.5961 2C40.5961 1.17157 41.2677 0.5 42.0961 0.5V3.5ZM32.123 0.5C32.9514 0.5 33.623 1.17157 33.623 2C33.623 2.82843 32.9514 3.5 32.123 3.5V0.5ZM32.0232 3.5C31.1948 3.5 30.5232 2.82843 30.5232 2C30.5232 1.17157 31.1948 0.5 32.0232 0.5V3.5ZM22.0501 0.5C22.8785 0.5 23.5501 1.17157 23.5501 2C23.5501 2.82843 22.8785 3.5 22.0501 3.5V0.5ZM21.9517 3.50006C21.1233 3.50218 20.45 2.83232 20.4479 2.00389C20.4458 1.17547 21.1156 0.502185 21.9441 0.500071L21.9517 3.50006ZM11.2955 3.35038C12.0136 2.93736 12.9306 3.1847 13.3436 3.90282C13.7566 4.62095 13.5093 5.53793 12.7912 5.95095L11.2955 3.35038ZM12.7082 5.99897C11.9922 6.41571 11.0739 6.17313 10.6572 5.45716C10.2405 4.74119 10.483 3.82294 11.199 3.4062L12.7082 5.99897ZM3.4062 11.199C3.82294 10.483 4.74119 10.2404 5.45716 10.6572C6.17314 11.0739 6.41572 11.9922 5.99898 12.7081L3.4062 11.199ZM5.95095 12.7911C5.53793 13.5093 4.62095 13.7566 3.90283 13.3436C3.1847 12.9306 2.93736 12.0136 3.35038 11.2955L5.95095 12.7911ZM0.500071 21.944C0.502185 21.1156 1.17547 20.4458 2.00389 20.4479C2.83232 20.45 3.50218 21.1233 3.50006 21.9517L0.500071 21.944ZM3.5 22.0512C3.5 22.8796 2.82843 23.5512 2 23.5512C1.17157 23.5512 0.5 22.8796 0.5 22.0512H3.5ZM0.5 32.2822C0.5 31.4538 1.17157 30.7822 2 30.7822C2.82843 30.7822 3.5 31.4538 3.5 32.2822H0.5ZM3.5 32.3845C3.5 33.2129 2.82843 33.8845 2 33.8845C1.17157 33.8845 0.5 33.2129 0.5 32.3845H3.5ZM0.5 42.6155C0.5 41.7871 1.17157 41.1155 2 41.1155C2.82843 41.1155 3.5 41.7871 3.5 42.6155H0.5ZM3.5 42.7178C3.5 43.5462 2.82843 44.2178 2 44.2178C1.17157 44.2178 0.5 43.5462 0.5 42.7178H3.5ZM0.5 52.9488C0.5 52.1204 1.17157 51.4488 2 51.4488C2.82843 51.4488 3.5 52.1204 3.5 52.9488H0.5ZM3.5 53.0512C3.5 53.8796 2.82843 54.5512 2 54.5512C1.17157 54.5512 0.5 53.8796 0.5 53.0512H3.5ZM0.5 63.2822C0.5 62.4538 1.17157 61.7822 2 61.7822C2.82843 61.7822 3.5 62.4538 3.5 63.2822H0.5ZM3.5 63.3845C3.5 64.2129 2.82843 64.8845 2 64.8845C1.17157 64.8845 0.5 64.2129 0.5 63.3845H3.5ZM0.5 73.6155C0.5 72.7871 1.17157 72.1155 2 72.1155C2.82843 72.1155 3.5 72.7871 3.5 73.6155H0.5ZM3.5 73.7178C3.5 74.5462 2.82843 75.2178 2 75.2178C1.17157 75.2178 0.5 74.5462 0.5 73.7178H3.5ZM0.5 83.9488C0.5 83.1204 1.17157 82.4488 2 82.4488C2.82843 82.4488 3.5 83.1204 3.5 83.9488H0.5ZM3.5 84.0512C3.5 84.8796 2.82843 85.5512 2 85.5512C1.17157 85.5512 0.5 84.8796 0.5 84.0512H3.5ZM0.5 94.2822C0.5 93.4537 1.17157 92.7822 2 92.7822C2.82843 92.7822 3.5 93.4537 3.5 94.2822H0.5ZM3.5 94.3845C3.5 95.2129 2.82843 95.8845 2 95.8845C1.17157 95.8845 0.5 95.2129 0.5 94.3845H3.5ZM0.5 104.616C0.5 103.787 1.17157 103.116 2 103.116C2.82843 103.116 3.5 103.787 3.5 104.616H0.5ZM3.5 104.718C3.5 105.546 2.82843 106.218 2 106.218C1.17157 106.218 0.5 105.546 0.5 104.718H3.5ZM0.5 114.949C0.5 114.12 1.17157 113.449 2 113.449C2.82843 113.449 3.5 114.12 3.5 114.949H0.5ZM3.5 115.051C3.5 115.88 2.82843 116.551 2 116.551C1.17157 116.551 0.5 115.88 0.5 115.051H3.5ZM0.5 125.282C0.5 124.454 1.17157 123.782 2 123.782C2.82843 123.782 3.5 124.454 3.5 125.282H0.5ZM3.5 125.384C3.5 126.213 2.82843 126.884 2 126.884C1.17157 126.884 0.5 126.213 0.5 125.384H3.5ZM0.5 135.616C0.5 134.787 1.17157 134.116 2 134.116C2.82843 134.116 3.5 134.787 3.5 135.616H0.5ZM3.5 135.718C3.5 136.546 2.82843 137.218 2 137.218C1.17157 137.218 0.5 136.546 0.5 135.718H3.5ZM0.5 145.949C0.5 145.12 1.17157 144.449 2 144.449C2.82843 144.449 3.5 145.12 3.5 145.949H0.5ZM505.5 3.5H505.45V0.5H505.5V3.5ZM495.477 3.5H495.377V0.5H495.477V3.5ZM485.404 3.5H485.304V0.5H485.404V3.5ZM475.331 3.5H475.231V0.5H475.331V3.5ZM465.258 3.5H465.158V0.5H465.258V3.5ZM455.185 3.5H455.086V0.5H455.185V3.5ZM445.112 3.5H445.013V0.5H445.112V3.5ZM435.039 3.5H434.94V0.5H435.039V3.5ZM424.967 3.5H424.867V0.5H424.967V3.5ZM414.894 3.5H414.794V0.5H414.894V3.5ZM404.821 3.5H404.721V0.5H404.821V3.5ZM394.748 3.5H394.648V0.5H394.748V3.5ZM384.675 3.5H384.575V0.5H384.675V3.5ZM374.602 3.5H374.502V0.5H374.602V3.5ZM364.529 3.5H364.429V0.5H364.529V3.5ZM354.456 3.5H354.356V0.5H354.456V3.5ZM344.383 3.5H344.283V0.5H344.383V3.5ZM334.31 3.5H334.211V0.5H334.31V3.5ZM324.237 3.5H324.138V0.5H324.237V3.5ZM314.164 3.5H314.065V0.5H314.164V3.5ZM304.092 3.5H303.992V0.5H304.092V3.5ZM294.019 3.5H293.919V0.5H294.019V3.5ZM283.946 3.5H283.846V0.5H283.946V3.5ZM273.873 3.5H273.773V0.5H273.873V3.5ZM263.8 3.5H263.7V0.5H263.8V3.5ZM253.727 3.5H253.627V0.5H253.727V3.5ZM243.654 3.5H243.554V0.5H243.654V3.5ZM233.581 3.5H233.481V0.5H233.581V3.5ZM223.508 3.5H223.408V0.5H223.508V3.5ZM213.435 3.5H213.336V0.5H213.435V3.5ZM203.362 3.5H203.263V0.5H203.362V3.5ZM193.289 3.5H193.19V0.5H193.289V3.5ZM183.217 3.5H183.117V0.5H183.217V3.5ZM173.144 3.5H173.044V0.5H173.144V3.5ZM163.071 3.5H162.971V0.5H163.071V3.5ZM152.998 3.5H152.898V0.5H152.998V3.5ZM142.925 3.5H142.825V0.5H142.925V3.5ZM132.852 3.5H132.752V0.5H132.852V3.5ZM122.779 3.5H122.679V0.5H122.779V3.5ZM112.706 3.5H112.606V0.5H112.706V3.5ZM102.633 3.5H102.534V0.5H102.633V3.5ZM92.5604 3.5H92.4607V0.5H92.5604V3.5ZM82.4875 3.5H82.3878V0.5H82.4875V3.5ZM72.4146 3.5H72.3149V0.5H72.4146V3.5ZM62.3417 3.5H62.242V0.5H62.3417V3.5ZM52.2688 3.5H52.169V0.5H52.2688V3.5ZM42.1959 3.5H42.0961V0.5H42.1959V3.5ZM32.123 3.5H32.0232V0.5H32.123V3.5ZM22.0501 3.5H22V0.5H22.0501V3.5ZM22 3.5C21.9839 3.5 21.9678 3.50002 21.9517 3.50006L21.9441 0.500071C21.9627 0.500024 21.9814 0.5 22 0.5V3.5ZM12.7912 5.95095C12.7634 5.96688 12.7358 5.98289 12.7082 5.99897L11.199 3.4062C11.2311 3.38751 11.2633 3.3689 11.2955 3.35038L12.7912 5.95095ZM5.99898 12.7081C5.9829 12.7358 5.96689 12.7634 5.95095 12.7911L3.35038 11.2955C3.36891 11.2633 3.38752 11.2311 3.4062 11.199L5.99898 12.7081ZM3.50006 21.9517C3.50002 21.9678 3.5 21.9839 3.5 22H0.5C0.5 21.9813 0.500024 21.9627 0.500071 21.944L3.50006 21.9517ZM3.5 22V22.0512H0.5V22H3.5ZM3.5 32.2822V32.3845H0.5V32.2822H3.5ZM3.5 42.6155V42.7178H0.5V42.6155H3.5ZM3.5 52.9488V53.0512H0.5V52.9488H3.5ZM3.5 63.2822V63.3845H0.5V63.2822H3.5ZM3.5 73.6155V73.7178H0.5V73.6155H3.5ZM3.5 83.9488V84.0512H0.5V83.9488H3.5ZM3.5 94.2822V94.3845H0.5V94.2822H3.5ZM3.5 104.616V104.718H0.5V104.616H3.5ZM3.5 114.949V115.051H0.5V114.949H3.5ZM3.5 125.282V125.384H0.5V125.282H3.5ZM3.5 135.616V135.718H0.5V135.616H3.5ZM3.5 145.949V146H0.5V145.949H3.5Z" fill="#C4C4C4"/>
</svg>
