<svg width="60" height="60" viewBox="0 0 60 60" fill="none" xmlns="http://www.w3.org/2000/svg">
<path d="M1.14565 55.573V5.59515C2.67016 6.47201 4.09348 7.28608 5.51249 8.10758C13.3872 12.6665 21.2581 17.232 29.1252 21.8041C29.3843 21.99 29.6954 22.0895 30.0143 22.0884C30.3332 22.0874 30.6436 21.9858 30.9014 21.7982C39.8301 16.5972 48.7692 11.4143 57.7189 6.24935C58.0442 6.0611 58.3805 5.8919 58.8544 5.63712V6.89767C58.8544 22.6551 58.8542 38.4125 58.8539 54.17C58.8538 55.6629 58.8512 55.6623 57.5591 54.914C53.4548 52.5371 49.3577 50.1475 45.2376 47.7983C44.9659 47.6729 44.7405 47.4655 44.5931 47.2053C44.4457 46.945 44.3837 46.645 44.4159 46.3476C44.4484 41.1751 44.4334 36.0022 44.4334 30.62C43.5477 31.1196 42.7893 31.5373 42.0404 31.9715C38.3389 34.1182 34.6301 36.2526 30.9489 38.4336C30.6742 38.6309 30.3443 38.7368 30.0061 38.7361C29.6679 38.7354 29.3384 38.6283 29.0645 38.4299C24.979 36.0206 20.8668 33.6564 16.7581 31.2868C15.6178 30.6291 15.6064 30.6442 15.6061 31.994C15.6048 36.783 15.6069 41.5721 15.6123 46.3611C15.6587 46.6198 15.6223 46.8866 15.5083 47.1234C15.3942 47.3603 15.2084 47.5551 14.9773 47.6802C10.5227 50.2217 6.09366 52.808 1.65465 55.3768C1.48961 55.4536 1.31954 55.5191 1.14565 55.573Z" fill="#2DB163"/>
</svg>
