<svg xmlns="http://www.w3.org/2000/svg" width="60" height="60" viewBox="0 0 60 60"><g fill-rule="evenodd" clip-rule="evenodd"><path fill="#E93D02" d="M3.405 50.398c8.542 3.152 17.083 6.303 25.62 9.468.42.156.802.176 1.218.06 5.042-1.4 10.082-2.806 15.13-4.187.52-.144.69-.358.69-.91-.018-14.81-.017-29.623 0-44.434 0-.565-.155-.808-.723-.97-4.455-1.26-8.922-2.495-13.336-3.89-1.698-.535-3.175-.456-4.8.234-2.883 1.223-5.844 2.264-8.772 3.38-.304.463-.812.388-1.257.476h-.003c-.304.465-.783.465-1.258.473-.28.435-.723.456-1.175.453l-.05-.015-.03.04c-.106.178-.286.153-.454.16l-.02.004c-.573.47-1.246.676-1.97.753l-.045-.014-.027.04c-.106.18-.287.156-.455.164l-.02.003c-.277.396-.696.43-1.127.436l.014-.01c-.22.286-.54.308-.86.328l-.04-.013-.03.036c-.187.423-.58.287-.905.33l-.037.006c-.077.114-.19.136-.317.132h-.002c-.08.15-.216.16-.36.142-.05-.023-.085-.01-.112.035-.568.49-1.234.72-1.978.745l-.063.02c-.332.307-.707.51-1.18.455l-.05-.013-.03.04c-.355.326-.765.506-1.256.468H3.33c-.333.303-.704.507-1.175.45l-.05-.012-.032.04c-.313.438-.786.445-1.253.467l-.007.004c-.14.298-.373.352-.665.26l-.003.022c.014.34.04.68.04 1.02.003 10.32 0 20.64.008 30.962 0 .32-.144.69.196.95 3.12-1.21 6.236-2.427 9.364-3.617.418-.157.368-.447.368-.754.002-1.338 0-2.676 0-4.013 0-7.158.006-14.317-.01-21.476 0-.598.084-.888.78-1.05 5.99-1.394 11.97-2.844 17.946-4.295.614-.15.784-.032.783.632-.02 12.666-.015 25.33-.01 37.996 0 .493.04.792-.682.688-5.99-.857-11.984-1.688-17.984-2.473A1622.68 1622.68 0 0 1 1.046 49.3l2.357 1.1z"/><path fill="#E63F07" d="M7.893 13.11c-.568.49-1.234.72-1.978.745.63-.326 1.282-.592 1.978-.746zM14.187 10.744c-.572.47-1.245.676-1.97.753a7.595 7.595 0 0 1 1.97-.753zM2.074 15.3c-.313.44-.786.446-1.253.468.39-.24.8-.406 1.255-.467zM17.173 9.627c-.304.464-.783.464-1.258.472.393-.23.803-.41 1.258-.474zM4.59 14.356c-.355.326-.765.506-1.256.468.393-.226.8-.414 1.257-.468zM15.915 10.1c-.28.436-.723.457-1.175.454.357-.242.75-.388 1.175-.455zM18.433 9.15c-.304.463-.812.388-1.257.476a3.4 3.4 0 0 1 1.257-.476zM3.33 14.825c-.333.302-.704.506-1.175.45.353-.253.756-.373 1.176-.45zM5.852 13.874c-.333.308-.708.512-1.182.456.354-.254.76-.376 1.182-.456zM11.67 11.688c-.277.396-.696.43-1.127.436.34-.244.725-.362 1.128-.436zM9.627 12.464c-.188.423-.58.287-.906.33.278-.18.573-.31.908-.33zM.812 15.77c-.14.3-.373.353-.665.262a.96.96 0 0 1 .665-.26z"/><path fill="#E63F07" d="M10.557 12.115c-.22.285-.54.307-.86.327.246-.215.544-.296.86-.327zM12.145 11.52c-.106.182-.287.157-.455.165.12-.14.277-.18.455-.164zM14.662 10.58c-.106.178-.286.153-.454.16.12-.142.276-.182.454-.16zM8.364 12.934c-.08.148-.216.158-.36.14.086-.132.218-.15.36-.14zM8.684 12.8c-.077.115-.19.137-.317.133.074-.116.182-.158.317-.133z"/></g></svg>