<svg xmlns="http://www.w3.org/2000/svg" width="60" height="60" viewBox="0 0 60 60"><g fill="#0072C6"><path d="M.057 26.756c0-7.088.13-14.184-.052-21.27-.1-3.856 1.315-5.5 5.174-5.48C19.533.076 33.89.086 48.25 0c3.74-.02 5.518 1.26 5.477 5.27-.157 14.71-.118 29.422-.027 44.133.02 3.502-.43 5.123-4.2 5.097-24 0-24 .006-43.603.006-4.014.032-5.943-1.703-5.878-5.416.127-7.445.037-14.89.036-22.334zm26.65 24.184c6.212 0 12.43-.16 18.634.063 3.37.12 4.706-.756 4.618-4.4-.234-9.756-.182-19.52-.02-29.282.052-3.17-.866-4.385-4.188-4.345-12.6.15-25.204.133-37.804.01-2.963-.03-4.028.867-3.98 3.92.155 10.114.174 20.233-.01 30.348-.057 3.252 1.33 3.803 4.117 3.734 6.21-.15 12.422-.047 18.635-.046z"/><path d="M30.004 19.04c.24 2.454-.133 3.862-2.945 3.888-3.01.028-3.36-1.44-3.38-3.88-.02-2.498.912-3.31 3.377-3.343 2.777-.036 3.283 1.337 2.946 3.334zM32.164 19.327c-.286-2.283.264-3.556 3.018-3.64 3.1-.096 3.32 1.445 3.356 3.872.037 2.49-.782 3.364-3.328 3.357-2.735-.007-3.35-1.29-3.046-3.59zM43.77 15.816c2.788-.51 3.29 1.02 3.218 3.377-.06 2.104-.008 3.714-2.98 3.747-2.957.03-3.563-1.158-3.516-3.782.043-2.395.548-3.833 3.28-3.342zM21.65 18.707c.127 2.48.082 4.22-2.885 4.21-2.554-.012-3.487-.936-3.388-3.415.08-2.083.05-3.846 2.998-3.79 2.467.048 3.737.77 3.276 2.995zM35.174 42.268c2.458-.46 3.463.486 3.36 3.084-.083 2.16-.16 3.697-3.02 3.604-2.354-.078-3.55-.604-3.444-3.256.087-2.207.235-3.92 3.104-3.432zM29.97 45.407c.51 2.927-.828 3.538-3.28 3.54-2.913 0-2.922-1.684-3-3.816-.088-2.465 1.113-2.9 3.238-2.96 2.633-.077 3.608.946 3.04 3.24zM21.604 45.38c.456 2.848-.78 3.565-3.248 3.566-2.896 0-2.918-1.685-2.983-3.795-.074-2.363.996-2.946 3.178-2.985 2.6-.046 3.586.95 3.055 3.217zM13.567 45.234c.28 2.262-.21 3.71-2.963 3.706-2.323-.004-3.63-.476-3.503-3.162.1-2.104.087-3.782 3-3.614 2.173.125 3.94.23 3.468 3.07zM43.542 33.635c2.394-.405 3.59.332 3.47 3.05-.097 2.176-.148 3.706-3.04 3.595-2.306-.088-3.643-.396-3.475-3.165.13-2.142.077-4.01 3.045-3.48zM32.175 36.825c-.456-2.6.813-3.235 3.232-3.308 2.706-.078 3.095 1.154 3.136 3.453.044 2.484-.756 3.334-3.28 3.31-2.583-.028-3.493-1.022-3.088-3.455zM29.97 36.514c.424 2.666-.333 3.795-3.042 3.768-2.656-.027-3.283-1.124-3.248-3.527.034-2.188.624-3.234 3.007-3.21 2.32.02 4.008.307 3.282 2.97zM21.602 36.695c.458 2.805-.69 3.617-3.194 3.572-2.31-.045-3.048-.938-3.044-3.148.006-2.253.36-3.654 3.13-3.594 2.488.055 3.676.817 3.108 3.168zM10.92 33.61c3.087-.237 2.59 1.966 2.697 3.86.172 3.03-1.906 2.658-3.843 2.752-3.142.154-2.504-2.066-2.636-3.902-.217-3.01 1.816-2.802 3.78-2.71zM43.366 24.916c2.687-.448 3.73.465 3.643 3.08-.075 2.226-.286 3.62-3.095 3.546-2.39-.062-3.56-.594-3.402-3.23.123-2.126.032-4.097 2.852-3.396zM38.434 28.262c.46 2.695-.906 3.23-3.332 3.27-2.947.05-2.94-1.607-3.015-3.74-.084-2.438 1.11-2.915 3.23-3.01 2.67-.123 3.52 1.03 3.117 3.48zM29.975 27.922c.434 2.783-.656 3.604-3.188 3.612-2.808.01-3.062-1.438-3.095-3.653-.033-2.32.96-3.042 3.145-3.087 2.476-.052 3.76.71 3.138 3.13zM15.708 28.54c-.353-2.56.352-3.86 3.047-3.755 2.085.08 3.355.545 3.28 2.947-.066 2.04.038 3.87-2.932 3.783-2.28-.066-3.93-.356-3.395-2.974zM7.188 28.3c-.35-2.405.458-3.636 3.14-3.515 2.074.095 3.378.506 3.31 2.963-.058 2.11-.05 3.832-3 3.777-2.36-.043-3.84-.494-3.45-3.224z"/></g></svg>