<svg width="60" height="60" viewBox="0 0 60 60" fill="none" xmlns="http://www.w3.org/2000/svg">
<path d="M59.0324 17.5951C58.4899 14.7645 57.3882 12.0705 55.792 9.67076C54.1958 7.27101 52.137 5.21369 49.7361 3.61919C47.3351 2.0247 44.6404 0.92505 41.8094 0.384558C38.9783 -0.155933 36.068 -0.126418 33.2485 0.471418C24.7039 2.33478 19.136 7.64797 16.5628 16.0361C16.5302 16.1966 16.4511 16.3439 16.3354 16.4597C16.2196 16.5755 16.0723 16.6546 15.9118 16.6872C11.2239 17.9552 7.12003 20.8079 4.29808 24.7602C1.97891 27.8936 0.536203 31.5882 0.118335 35.464C0.0439249 36.1059 0.0377116 36.7557 0 37.4018L0.130699 37.4668L15.6366 22.1424C15.743 23.1702 15.8369 24.3449 15.9993 25.51C16.0305 25.7037 16.0098 25.9021 15.9395 26.0853C15.8692 26.2684 15.7516 26.4297 15.5988 26.5527C13.8339 28.3041 12.0836 30.0701 10.3289 31.8317C7.13656 35.0368 3.94665 38.2443 0.759245 41.4543C0.577741 41.6155 0.46764 41.8421 0.453061 42.0844C0.795459 44.108 1.44855 46.0665 2.38922 47.8906C2.45243 47.9971 2.52195 48.0996 2.59742 48.1978C2.66168 48.1526 2.72351 48.104 2.78268 48.0523C5.9635 44.8585 9.1411 41.6615 12.3155 38.4612C12.4473 38.2906 12.524 38.0839 12.5353 37.8686C12.6103 37.2342 12.6137 36.5899 12.7116 35.9598C13.1956 33.5257 14.5974 31.3711 16.6267 29.9424C16.7299 29.8773 16.8394 29.8226 16.9535 29.7791C19.4803 35.9757 23.5667 40.6005 30.0078 42.9029C29.6591 43.5472 29.1868 44.1165 28.6181 44.5783C26.8107 46.2741 24.4445 47.2489 21.967 47.3183C21.7208 47.3436 21.4901 47.4505 21.3116 47.622C18.2106 50.7142 15.1175 53.8144 12.0324 56.9225C11.9107 57.0446 11.7982 57.1759 11.6608 57.3253C11.7454 57.3921 11.834 57.4537 11.926 57.5098C13.7089 58.4252 15.6117 59.0851 17.5785 59.4701C17.7142 59.5073 17.8577 59.5049 17.992 59.4631C18.1263 59.4213 18.2458 59.3419 18.3364 59.2342C19.7304 57.8154 21.1428 56.4146 22.5456 55.0043C26.1429 51.3875 29.7384 47.7689 33.3321 44.1486C33.4243 44.0304 33.5474 43.9401 33.6878 43.8875C33.8282 43.8349 33.9803 43.8221 34.1275 43.8506C34.8197 43.9689 35.5247 44.0144 36.2253 44.0819C36.7385 44.1313 37.2531 44.1676 37.9174 44.222C32.6635 49.5046 27.5116 54.6847 22.3598 59.8648L22.3965 60C23.569 59.8569 24.7515 59.7691 25.9125 59.5613C30.8395 58.6854 35.2926 56.0809 38.4713 52.2158C40.5143 49.7752 42.0582 46.9571 43.0153 43.9216C43.0512 43.769 43.1293 43.6295 43.2407 43.5191C43.352 43.4087 43.4921 43.3318 43.645 43.2971C47.7904 42.1577 51.4769 39.753 54.1902 36.4183C56.4015 33.871 57.9902 30.8444 58.8306 27.5776C59.6709 24.3108 59.7401 20.8933 59.0324 17.5951V17.5951ZM37.6304 31.7256C35.7418 31.741 33.8913 31.1946 32.314 30.1558C30.7367 29.1171 29.5038 27.6328 28.772 25.8917C28.0402 24.1507 27.8425 22.2313 28.2041 20.3776C28.5657 18.5239 29.4702 16.8196 30.8027 15.4811C32.1352 14.1427 33.8355 13.2307 35.6876 12.8608C37.5396 12.491 39.4598 12.6801 41.2041 13.4042C42.9485 14.1282 44.4382 15.3545 45.484 16.9271C46.5297 18.4998 47.0843 20.3479 47.0773 22.2365C47.0775 24.7459 46.0836 27.1532 44.3131 28.9316C42.5427 30.71 40.1398 31.7146 37.6304 31.7256V31.7256Z" fill="#0037FF"/>
<path d="M13.4254 42.1205C13.3515 42.1516 13.2808 42.1897 13.2143 42.2345C10.329 45.1344 7.44364 48.0344 4.55821 50.9342C4.37322 51.1198 4.35027 51.2635 4.5325 51.459C5.5806 52.5835 6.61205 53.7237 7.67517 54.8337C7.94058 55.0774 8.22813 55.2958 8.53408 55.4862C11.6285 52.4267 14.6441 49.445 17.6845 46.4389C15.8522 45.4747 14.3641 43.9659 13.4254 42.1205Z" fill="#0037FF"/>
</svg>
