<?xml version="1.0" encoding="UTF-8"?>
<svg width="60px" height="60px" viewBox="0 0 60 60" version="1.1" xmlns="http://www.w3.org/2000/svg" xmlns:xlink="http://www.w3.org/1999/xlink">
    <!-- Generator: Sketch 46.2 (44496) - http://www.bohemiancoding.com/sketch -->
    <title>Page 1</title>
    <desc>Created with Sketch.</desc>
    <defs>
        <polygon id="path-1" points="59.565 0.806635367 59.565 54 0 54 0 0.806635367"></polygon>
    </defs>
    <g id="Page-1" stroke="none" stroke-width="1" fill="none" fill-rule="evenodd">
        <g transform="translate(0.000000, 2.000000)">
            <g id="Group-3" transform="translate(0.000000, 0.193700)">
                <mask id="mask-2" fill="white">
                    <use xlink:href="#path-1"></use>
                </mask>
                <g id="Clip-2"></g>
                <path d="M33.2816,39.6144 C33.2656,39.5854 33.2506,39.5564 33.2336,39.5274 C30.9456,39.6404 28.6566,39.6374 26.3496,39.5304 C26.3716,39.6094 26.3726,39.6344 26.3846,39.6494 C27.4126,41.0174 28.5156,42.3224 29.6596,43.5934 C29.8006,43.7504 29.8766,43.6824 29.9786,43.5654 C30.4836,42.9844 31.0026,42.4154 31.4956,41.8234 C32.1016,41.0954 32.6866,40.3514 33.2816,39.6144 L33.2816,39.6144 Z M26.2606,15.2754 C28.6666,15.1564 30.9596,15.1654 33.2816,15.2674 C33.2466,15.1844 33.2396,15.1514 33.2196,15.1264 C32.1936,13.7844 31.1176,12.4834 29.9786,11.2334 C29.8466,11.0884 29.7646,11.0814 29.6346,11.2334 C29.1036,11.8534 28.5516,12.4554 28.0286,13.0824 C27.4496,13.7754 26.8936,14.4874 26.2606,15.2754 L26.2606,15.2754 Z M42.0426,24.3644 C42.0966,24.2904 42.1216,24.2684 42.1336,24.2404 C42.8106,22.6594 43.3946,21.0454 43.9216,19.4074 C43.9976,19.1694 43.8586,19.1684 43.7106,19.1394 C42.9456,18.9894 42.1816,18.8264 41.4146,18.6894 C40.4716,18.5214 39.5276,18.3694 38.5216,18.2604 C39.7926,20.2554 40.9496,22.2614 42.0426,24.3644 L42.0426,24.3644 Z M38.5416,36.5044 C38.6606,36.5044 38.7046,36.5084 38.7486,36.5034 C40.4336,36.3084 42.1006,36.0014 43.7606,35.6474 C44.0146,35.5934 43.9446,35.4654 43.8946,35.3094 C43.3876,33.7144 42.8046,32.1464 42.1606,30.6014 C42.1386,30.5514 42.1456,30.4564 42.0206,30.4684 C40.9686,32.5074 39.8136,34.4994 38.5416,36.5044 L38.5416,36.5044 Z M21.0856,36.5204 C19.7926,34.4944 18.6456,32.4894 17.5446,30.3874 C16.8426,32.0514 16.2526,33.6654 15.7156,35.3014 C15.6276,35.5704 15.7226,35.6274 15.9476,35.6694 C16.8926,35.8444 17.8346,36.0444 18.7826,36.2074 C19.5166,36.3334 20.2526,36.4604 21.0856,36.5204 L21.0856,36.5204 Z M17.5466,24.4074 C18.6626,22.2674 19.8216,20.2554 21.1036,18.2474 C20.5576,18.3244 20.0776,18.3884 19.5976,18.4604 C18.3446,18.6484 17.1006,18.8834 15.8606,19.1444 C15.6956,19.1794 15.6356,19.2274 15.6966,19.4164 C16.2266,21.0764 16.8276,22.7094 17.5466,24.4074 L17.5466,24.4074 Z M45.6586,9.6074 C45.6426,9.3194 45.6306,8.8774 45.5906,8.4374 C45.4916,7.3494 45.2976,6.2824 44.7896,5.2984 C44.1196,3.9994 43.0686,3.3224 41.5896,3.3504 C40.6816,3.3674 39.8186,3.5934 38.9866,3.9374 C36.1796,5.0984 33.9076,7.0184 31.7306,9.0724 C31.5856,9.2104 31.6516,9.2914 31.7566,9.4034 C33.4756,11.2604 35.0466,13.2404 36.5126,15.3024 C36.6246,15.4564 36.7446,15.5194 36.9306,15.5334 C37.4386,15.5724 37.9466,15.6264 38.4526,15.6884 C40.4646,15.9364 42.4636,16.2624 44.4416,16.7064 C44.6126,16.7444 44.6776,16.7274 44.7206,16.5444 C45.2626,14.3144 45.6236,12.0604 45.6586,9.6074 L45.6586,9.6074 Z M13.9566,9.6104 C14.0336,12.3474 14.3906,14.3634 14.8396,16.3664 C14.9156,16.7074 15.0386,16.7494 15.3586,16.6764 C17.7566,16.1254 20.1866,15.7744 22.6346,15.5374 C22.8586,15.5154 23.0006,15.4464 23.1326,15.2604 C24.5786,13.2254 26.1266,11.2724 27.8286,9.4444 C28.0156,9.2424 27.9676,9.1474 27.7976,8.9874 C27.0226,8.2554 26.2316,7.5414 25.3986,6.8764 C23.8056,5.6074 22.1356,4.4634 20.1976,3.7754 C19.3156,3.4624 18.4076,3.2644 17.4646,3.3764 C15.9446,3.5564 15.0826,4.5264 14.5686,5.8734 C14.0256,7.2964 13.9536,8.7884 13.9566,9.6104 L13.9566,9.6104 Z M57.0366,27.4584 C57.0296,26.5534 56.6986,25.8204 56.2006,25.1514 C55.4356,24.1244 54.4346,23.3654 53.3546,22.7064 C51.2806,21.4384 49.0226,20.6004 46.7066,19.9034 C46.4606,19.8284 46.3986,19.9364 46.3366,20.1384 C45.5886,22.5304 44.6786,24.8594 43.6356,27.1364 C43.5456,27.3334 43.5596,27.4904 43.6456,27.6794 C44.6926,29.9684 45.6076,32.3064 46.3526,34.7114 C46.4116,34.9004 46.4826,34.9604 46.6896,34.8974 C48.6676,34.3044 50.6026,33.6034 52.4266,32.6234 C53.6896,31.9444 54.8856,31.1664 55.8466,30.0814 C56.5236,29.3174 57.0116,28.4644 57.0366,27.4584 L57.0366,27.4584 Z M2.5786,27.3894 C2.5766,27.9724 2.7416,28.5104 3.0146,29.0144 C3.5916,30.0794 4.4656,30.8664 5.4396,31.5484 C7.7246,33.1464 10.2996,34.1014 12.9426,34.9034 C13.1356,34.9624 13.2046,34.8944 13.2576,34.7244 C14.0086,32.2994 14.9356,29.9394 15.9896,27.6314 C16.0686,27.4594 16.0616,27.3184 15.9846,27.1504 C14.9376,24.8624 14.0206,22.5234 13.2746,20.1194 C13.2056,19.8974 13.1166,19.8384 12.8906,19.9064 C10.8706,20.5174 8.8946,21.2374 7.0376,22.2554 C5.8286,22.9174 4.6906,23.6774 3.7666,24.7174 C3.0886,25.4804 2.6006,26.3334 2.5786,27.3894 L2.5786,27.3894 Z M45.6586,45.0394 C45.6166,42.6974 45.2606,40.4674 44.7236,38.2594 C44.6726,38.0474 44.5846,38.0534 44.4146,38.0924 C41.9706,38.6484 39.4976,39.0134 37.0056,39.2604 C36.7336,39.2864 36.5846,39.3904 36.4356,39.5994 C35.0036,41.6164 33.4596,43.5454 31.7806,45.3624 C31.6146,45.5424 31.6306,45.6344 31.7976,45.7924 C33.1236,47.0504 34.5066,48.2404 36.0286,49.2564 C37.4586,50.2104 38.9536,51.0254 40.6706,51.3544 C42.7716,51.7594 44.2936,50.9204 45.0516,48.9164 C45.5326,47.6444 45.6266,46.3144 45.6586,45.0394 L45.6586,45.0394 Z M13.9536,45.1284 C13.9706,45.4394 13.9826,45.9054 14.0246,46.3674 C14.1316,47.5484 14.3506,48.7014 14.9626,49.7424 C15.5246,50.7004 16.3336,51.2864 17.4576,51.4154 C18.4896,51.5344 19.4666,51.3074 20.4126,50.9384 C23.3246,49.8034 25.6506,47.8224 27.8896,45.7184 C28.0176,45.5974 27.9766,45.5214 27.8776,45.4134 C26.1456,43.5364 24.5546,41.5444 23.0776,39.4614 C22.9926,39.3414 22.8956,39.2854 22.7436,39.2734 C22.2586,39.2344 21.7736,39.1814 21.2906,39.1234 C19.2326,38.8724 17.1876,38.5494 15.1666,38.0834 C14.9906,38.0424 14.9346,38.0864 14.8916,38.2604 C14.3526,40.4674 13.9976,42.6994 13.9536,45.1284 L13.9536,45.1284 Z M29.8846,17.7144 C28.0926,17.7444 26.3366,17.7814 24.5826,17.9094 C24.4316,17.9204 24.3326,17.9664 24.2476,18.0914 C22.2716,21.0024 20.5186,24.0414 18.9836,27.2074 C18.9176,27.3434 18.9146,27.4514 18.9816,27.5884 C20.5216,30.7524 22.2666,33.7964 24.2496,36.7034 C24.3346,36.8284 24.4286,36.8854 24.5806,36.8924 C25.5776,36.9354 26.5736,37.0074 27.5696,37.0314 C30.0306,37.0924 32.4896,37.0624 34.9476,36.9014 C35.1846,36.8854 35.3096,36.7874 35.4326,36.6064 C37.3706,33.7514 39.0806,30.7644 40.5976,27.6664 C40.6916,27.4744 40.6956,27.3214 40.5996,27.1294 C39.9786,25.8814 39.3386,24.6444 38.6586,23.4274 C37.6526,21.6254 36.5726,19.8694 35.4096,18.1654 C35.3206,18.0344 35.2456,17.9214 35.0486,17.9074 C33.3176,17.7884 31.5846,17.7444 29.8846,17.7144 L29.8846,17.7144 Z M-0.0004,27.0314 C0.1316,26.9314 0.0706,26.7794 0.0896,26.6544 C0.3786,24.7554 1.4406,23.3184 2.8346,22.0934 C4.8156,20.3534 7.1556,19.2464 9.5976,18.3304 C10.4456,18.0114 11.3046,17.7224 12.1786,17.4854 C12.4366,17.4154 12.4816,17.3184 12.4186,17.0594 C11.7936,14.4864 11.3676,11.8854 11.4466,9.2264 C11.4986,7.5054 11.7556,5.8204 12.5226,4.2504 C13.7556,1.7244 16.1426,0.4824 18.9306,0.8794 C20.9026,1.1594 22.6506,1.9884 24.3216,3.0144 C26.2236,4.1824 27.9296,5.6044 29.5386,7.1434 C29.7426,7.3384 29.8416,7.3684 30.0676,7.1544 C32.1846,5.1374 34.4436,3.3074 37.0946,2.0214 C38.4806,1.3494 39.9206,0.8494 41.4836,0.8224 C44.1996,0.7754 46.0746,2.0594 47.2006,4.4844 C47.7656,5.7004 48.0096,7.0014 48.1146,8.3304 C48.3496,11.2924 47.8796,14.1814 47.1996,17.0474 C47.1336,17.3274 47.1916,17.4154 47.4546,17.4924 C49.9966,18.2334 52.4566,19.1734 54.7186,20.5744 C56.0076,21.3724 57.1946,22.2974 58.1246,23.5124 C60.1286,26.1314 60.0356,29.0824 57.8846,31.5864 C56.5276,33.1644 54.8196,34.2624 52.9846,35.1864 C51.2196,36.0754 49.3716,36.7524 47.4746,37.2974 C47.1976,37.3774 47.1306,37.4684 47.2016,37.7614 C47.8006,40.2224 48.2106,42.7124 48.1746,45.2554 C48.1486,47.0104 47.9166,48.7314 47.1816,50.3534 C45.9516,53.0714 43.3586,54.4184 40.4236,53.8854 C38.1296,53.4684 36.1396,52.3924 34.2476,51.0974 C32.7376,50.0634 31.3496,48.8784 30.0316,47.6124 C29.8436,47.4314 29.7536,47.4524 29.5756,47.6204 C27.6056,49.4934 25.5136,51.2074 23.0966,52.4834 C21.5106,53.3214 19.8566,53.9674 18.0306,53.9774 C15.4266,53.9924 13.5906,52.7594 12.4706,50.4364 C11.8726,49.1964 11.6126,47.8644 11.5026,46.5014 C11.2616,43.5284 11.7296,40.6274 12.4156,37.7524 C12.4806,37.4774 12.4286,37.3824 12.1626,37.3034 C9.5756,36.5514 7.0756,35.5904 4.7836,34.1504 C3.4196,33.2944 2.1836,32.2904 1.2466,30.9594 C0.6106,30.0544 0.1916,29.0624 0.0706,27.9554 C0.0636,27.8904 0.0816,27.8154 -0.0004,27.7814 L-0.0004,27.0314 Z" id="Fill-1" fill="#1CDCFE" mask="url(#mask-2)"></path>
            </g>
            <path d="M35.1302,27.5918 C35.1332,30.5488 32.7472,32.9388 29.7982,32.9358 C26.8652,32.9318 24.4912,30.5518 24.4842,27.6088 C24.4762,24.6428 26.8442,22.2578 29.7982,22.2558 C32.7592,22.2538 35.1282,24.6248 35.1302,27.5918" id="Fill-4" fill="#1CDCFE"></path>
        </g>
    </g>
</svg>