<svg version="1.1" id="Layer_1" xmlns="http://www.w3.org/2000/svg" xmlns:xlink="http://www.w3.org/1999/xlink" x="0px" y="0px"
	 width="60" height="60" viewBox="0 0 60 60" style="enable-background:new 0 0 60 60;" xml:space="preserve">
<style type="text/css">
	.st0{fill:#0A9355;}
	.st1{fill:#7BB786;}
</style>
<path class="st0" d="M39.5,8c0,1.3-0.9,2.4-2.1,2.6c-0.6,0.1-1.3,0-1.9-0.2c-1.1-0.3-2.3-0.6-3.5-0.6c-0.7,0-1.5-0.1-2.2-0.1
	c-3.2,0-6.2,0.8-9.1,2.2c-1.3,0.7-2.6,1.5-3.7,2.5c-0.6,0.6-1.2,1.1-1.8,1.7c-1,1.1-1.9,2.3-2.7,3.6c-0.8,1.5-1.5,3-2,4.6
	c-0.5,1.1-1.6,1.8-2.8,1.6c-0.8-0.1-1.5-0.6-1.9-1.3c-0.4-0.6-0.5-1.4-0.2-2.2c0.5-1.5,1-2.9,1.8-4.3c0.8-1.5,1.7-2.9,2.8-4.2
	c0.5-0.7,1.1-1.4,1.7-2c0.9-0.9,1.8-1.6,2.8-2.4c1.3-1,2.7-1.9,4.2-2.6c1.6-0.8,3.4-1.4,5.1-1.9c0.9-0.2,1.9-0.4,2.9-0.5
	c0.9-0.1,1.9-0.2,2.8-0.2c1,0,2.1,0.1,3.2,0.1c1.6,0.1,3.3,0.5,4.8,0.9C38.7,5.7,39.5,6.8,39.5,8z"/>
<path class="st0" d="M29.7,55.7c-0.9-0.1-2.1-0.1-3.2-0.3c-1.3-0.2-2.7-0.5-4-0.9c-1.4-0.4-2.3-1.8-1.9-3.2c0.1-0.3,0.2-0.7,0.4-0.9
	c0.7-1,1.9-1.4,3.1-1c1,0.3,2.1,0.5,3.1,0.7c0.6,0.1,1.1,0.1,1.7,0.1c0.6,0,1.2,0,1.7,0c1.2,0,2.5-0.1,3.7-0.4
	c1.8-0.4,3.5-1,5.1-1.8c1.3-0.7,2.5-1.5,3.6-2.5c0.8-0.7,1.6-1.5,2.4-2.3c0.8-1,1.6-2,2.2-3.2c0.7-1.4,1.3-2.8,1.8-4.3
	c0.5-1.4,2-2.1,3.4-1.6c0.4,0.1,0.7,0.3,1,0.6c0.8,0.7,1,1.8,0.7,2.8c-0.4,1.4-1,2.8-1.7,4c-0.7,1.5-1.6,2.9-2.7,4.2
	c-0.9,1-1.8,2-2.7,3c-1.1,1-2.2,1.9-3.5,2.7c-1.6,1-3.3,1.8-5,2.5c-1.6,0.6-3.3,1.1-5,1.3c-0.7,0.1-1.5,0.2-2.3,0.2
	C31.2,55.6,30.5,55.6,29.7,55.7z"/>
<path class="st1" d="M39.1,25.9H23.2c-1.5,0.1-2.7-1-2.8-2.5s1-2.7,2.5-2.8c0.5,0,0.9-0.1,1.4-0.1h30.4c0.8,0,1.6,0.2,2.2,0.8
	c0.5,0.4,0.8,1,0.8,1.7c0.1,1.1-0.5,2.2-1.5,2.6c-0.4,0.2-0.8,0.3-1.2,0.3C49.7,25.9,44.4,25.9,39.1,25.9z"/>
<path class="st1" d="M21,34.1c5.3,0,10.6,0,15.9,0c1.5,0,2.7,1.2,2.6,2.7c0,1.3-1,2.4-2.3,2.6c-0.1,0-0.2,0-0.3,0H4.9
	c-1.1-0.1-2.1-0.8-2.4-1.9c-0.4-1.3,0.2-2.7,1.4-3.2c0.3-0.1,0.7-0.2,1-0.2C10.2,34,15.6,34,21,34.1z"/>
<path class="st1" d="M16.9,46.9c0,1.5-1.3,2.6-2.7,2.6c-1.5,0-2.6-1.3-2.6-2.7c0-1.4,1.2-2.6,2.7-2.6c1.4,0,2.6,1.1,2.7,2.6
	C16.9,46.8,16.9,46.8,16.9,46.9z"/>
<path class="st1" d="M48.4,13.2c0,1.5-1.3,2.6-2.7,2.6c-1.5,0-2.6-1.3-2.6-2.7c0-1.4,1.2-2.6,2.7-2.6c1.4,0,2.6,1.1,2.7,2.6
	C48.4,13.1,48.4,13.1,48.4,13.2z"/>
</svg>
