<svg xmlns="http://www.w3.org/2000/svg" width="60" height="60" viewBox="0 -11.15 60 60" overflow="visible"><path fill-rule="evenodd" clip-rule="evenodd" fill="#046EBC" d="M53.097 19.23c-1.108-.346-1.644-.677-3.255-.54-4.085.338-7.08 3.467-9.427 6.034-2.428 2.655-4.594 5.597-6.578 8.815-1.953 3.166-3.81 6.45-6.172 9.223-2.266 2.66-5.357 5.672-9.36 6.035-3.878.35-5.687-1.15-7.323-3.324-3.655-4.855-6.672-10.22-9.36-15.936 1.116.414 2.194.72 3.8.542 2.926-.325 5.238-2.28 7.12-4 2.033-1.86 3.63-3.865 5.155-5.9 3.406-4.55 5.716-9.47 9.02-13.158.323 5.193.292 10.74.475 16.074 3.448 1.48 7.39 2.466 11.055 3.73-3.565-6.63-7.698-13.28-11.46-19.94C29.22 4.19 31.827.46 36.55.04c2.05-.18 4.39.296 5.63 1.29.508.41 1.096 1.306 1.626 2.035 3.396 4.663 6.856 10.518 9.29 15.868zm-12.072-7.12c3.482 2.282 7.144 4.385 10.715 6.58-2.984-5.38-5.845-10.885-9.562-15.532-.333 3.034-.742 5.994-1.153 8.952zM14.78 37.406c4.442 1.458 8.978 2.82 13.427 4.273-2.865-4.733-5.77-9.828-8.68-14.584-1.002-1.636-1.917-3.323-2.917-4.883-.02-.03-.174.025-.203 0-.675 4.844-1.002 10.134-1.627 15.192z"/><path fill-rule="evenodd" clip-rule="evenodd" fill="#046EBC" d="M20.363 12.01c-2.86 4.526-5.925 9.264-10.376 12.614-1.48 1.112-3.215 2.152-5.358 2.306-2.967.213-4.42-1.43-4.613-3.934-.22-2.854 1.583-5.755 3.594-7.256 2.507-1.87 6.435-2.86 10.31-3.323a54.394 54.394 0 0 1 6.442-.407zM35.18 36.33c-.085-.456.33-.78.54-1.153 2.404-4.23 5.764-8.52 9.563-11.46 1.508-1.168 3.266-2.233 5.56-2.375 1.524-.093 3.083.52 3.663 1.357.633.91.812 2.317.814 3.185.01 3.895-2.8 6.573-5.833 8.003-4.115 1.94-9.162 2.25-14.308 2.44z"/></svg>