<svg width="60" height="60" viewBox="0 0 60 60" fill="none" xmlns="http://www.w3.org/2000/svg">
<path d="M25.7652 34.8863C25.6941 34.7625 25.6551 34.6229 25.6516 34.4803C25.648 34.3376 25.6802 34.1963 25.7451 34.0692C27.1382 32.205 28.1363 30.0762 28.6784 27.8129C28.8542 27.12 29.2385 26.4978 29.7795 26.0305C30.3204 25.5632 30.9919 25.2732 31.703 25.1999C32.8944 24.9304 34.0597 24.5561 35.1852 24.0813C36.1093 23.8229 37.009 23.4843 37.8742 23.0695C41.2622 21.0152 44.7789 19.1812 48.4026 17.5788C48.7229 17.3734 49.1028 17.2812 49.4816 17.317C49.8605 17.3527 50.2164 17.5144 50.4926 17.7762C50.7014 17.9545 51.14 18.1219 51.3296 18.0214C52.6499 17.3215 53.9323 16.5498 55.2197 15.8052C51.9649 9.97676 46.7945 5.45336 40.5853 3.00189C34.376 0.550419 27.51 0.321741 21.1514 2.35464C14.7928 4.38754 9.33294 8.55691 5.69748 14.1558C2.06201 19.7547 0.47471 26.4386 1.20469 33.0743C2.67922 47.3399 13.8792 56.6672 24.2411 58.4294C24.5304 57.7524 24.8434 57.0843 25.1021 56.3958C25.3547 55.8535 25.5257 55.2768 25.6095 54.6844C25.9294 48.9272 26.1881 43.1665 26.5118 37.4095C26.5695 36.9601 26.5329 36.5036 26.4043 36.0692C26.2758 35.6348 26.0581 35.2319 25.7652 34.8863V34.8863ZM25.0521 32.8951C24.6348 33.5318 24.4397 34.2885 24.4972 35.0476C24.4862 35.8305 24.2832 36.5988 23.9061 37.285C23.332 38.233 22.7064 38.1504 21.948 37.1673C23.8377 36.4567 23.1294 34.8197 23.2589 33.3576C22.8764 33.2613 22.4659 33.1397 22.0479 33.0563C20.8614 32.8195 19.6774 32.5545 18.4799 32.3974C18.0689 32.3654 17.6617 32.4956 17.3454 32.76C16.3955 33.6384 15.498 34.5775 14.6287 35.5372C14.3964 35.8247 14.2543 36.1745 14.2204 36.5426C14.1371 37.3151 14.1532 38.0979 14.1134 38.8757C14.0848 39.4359 13.7966 39.4178 13.3868 39.2045C12.9191 38.9611 12.4256 38.7681 11.9508 38.5377C11.7586 38.4445 11.484 38.3504 11.4213 38.1887C11.0044 37.1144 10.4345 35.9819 10.8713 34.8455C11.898 32.1736 13.0601 29.5537 14.1763 26.9166C14.4869 26.183 14.8153 25.457 15.1616 24.7388C15.3757 24.296 15.6407 23.8779 15.8812 23.4518C15.226 22.8064 14.6208 22.1122 14.0707 21.3752C13.7074 20.7634 13.4786 20.0811 13.3996 19.3739C13.2943 18.8625 13.3829 18.3303 13.6482 17.8806C13.9135 17.4309 14.3365 17.0959 14.835 16.9407C15.9615 16.6065 17.1131 16.3631 18.2785 16.2129C18.655 16.1485 19.2769 17.0808 19.3642 17.5992C19.5088 18.4581 19.7226 19.3051 19.895 20.1595C19.9854 20.6073 20.0498 21.0604 20.1355 21.5673C20.4146 21.275 20.7368 21.0271 21.0909 20.8321C21.6492 20.6549 22.2249 20.5384 22.8082 20.4847C24.0598 20.3202 25.3163 20.193 26.5685 20.0327C26.6755 20.019 26.8465 19.8765 26.8509 19.787C26.8933 18.9336 27.4517 18.1077 26.9797 17.2215C26.8671 17.0297 26.8255 16.8043 26.8622 16.5849C27.2376 15.3325 26.5799 14.4141 25.9374 13.4721C25.6717 12.9373 25.5647 12.3375 25.629 11.7438C25.6933 11.1501 25.9262 10.5871 26.3003 10.1215C26.8299 10.4731 27.3145 10.8883 27.7432 11.3578C27.998 11.8437 28.1683 12.3693 28.2467 12.9123C28.2868 13.1293 28.3055 13.3498 28.3025 13.5705C28.4109 15.373 28.7526 15.6643 30.5452 15.4885C30.702 15.4731 30.8616 15.4864 31.155 15.4864C30.8528 17.6629 31.3432 19.8636 30.3397 21.9304C29.9753 22.8006 29.2869 23.4951 28.4199 23.8672C27.6631 24.1772 26.9214 24.5243 25.9992 24.9318C26.3964 25.2752 26.8349 25.5677 27.3047 25.8023C27.8945 25.9994 28.0186 26.2721 27.8361 26.8352C27.2419 28.9924 26.3017 31.039 25.0521 32.8951V32.8951Z" fill="#B1003E"/>
<path d="M55.7783 17.0271C55.4936 17.5483 55.2581 18.0949 55.0749 18.6599C54.8375 19.7673 54.6831 19.8758 53.5791 19.9683C52.9048 20.038 52.2496 20.2334 51.6472 20.5442C51.2332 20.7521 50.9737 21.2487 50.5976 21.5581C50.1049 21.9554 49.591 22.3256 49.0581 22.667C48.1756 23.3019 47.2517 23.8772 46.2926 24.3891C44.9678 24.8443 43.6696 25.3733 42.404 25.9736C39.9152 27.5355 37.5768 29.3361 35.1443 30.9909C33.1056 32.3777 32.5225 34.5232 32.1154 36.7314C31.7257 38.8455 31.515 40.9921 31.1742 43.1161C30.6198 46.5712 30.0298 50.0205 29.4304 53.468C29.4 53.5906 29.3449 53.7057 29.2683 53.8062C29.1917 53.9066 29.0954 53.9903 28.9853 54.0521C28.0732 54.4923 27.9197 54.7891 28.2199 55.7586C28.3174 55.969 28.3717 56.1968 28.3794 56.4286C28.3872 56.6603 28.3484 56.8913 28.2652 57.1077C28.182 57.3241 28.0562 57.5216 27.8952 57.6885C27.7342 57.8554 27.5413 57.9882 27.328 58.0791C27.0295 58.2555 26.7444 58.4548 26.2794 58.7564C31.795 59.5075 37.4101 58.6416 42.4432 56.2638C47.4763 53.8859 51.711 50.0984 54.6335 45.3607C60.8145 35.4863 59.6319 23.7238 55.7783 17.0271Z" fill="#B1003E"/>
</svg>
