<!DOCTYPE svg PUBLIC "-//W3C//DTD SVG 1.1//EN" "http://www.w3.org/Graphics/SVG/1.1/DTD/svg11.dtd" [
	<!ENTITY ns_flows "http://ns.adobe.com/Flows/1.0/">
]><svg xmlns="http://www.w3.org/2000/svg" width="60" height="60" viewBox="0 -11.153 60 60" overflow="visible"><path fill-rule="evenodd" clip-rule="evenodd" fill="#046EBC" d="M48.875.003v48.844H.03V12.5c0-4.024-.04-7.992 0-12.116.002-.12-.146-.417.193-.38h48.652zm-25.47 10.97c-5.167.403-8.645 3.712-8.014 9.348.44 3.913 3.637 5.475 6.775 6.68 1.605.62 4.093 1.126 4.293 2.768.188 1.546-1.087 2.05-2.48 2.1-3.163.11-5.74-1.46-8.014-2.386-.238 2.147-.646 4.127-.954 6.203 4.49 2.714 13.536 3.194 17.076-.383 1.514-1.53 2.414-3.99 2.098-7.06-.418-4.046-3.783-5.633-7.06-6.868-1.39-.524-4.186-1.27-4.102-2.957.042-.86.95-1.356 1.908-1.43 2.784-.218 5.308 1.245 7.06 1.812.412-1.975.64-4.13 1.048-6.107-3.023-1.17-5.66-2.026-9.633-1.717z"/></svg>