<svg width="23" height="18" fill="none" xmlns="http://www.w3.org/2000/svg"><path fill="#fff" d="M8 5h9v8H8z"/><path d="M22.17 3.2a2.43 2.43 0 0 0-1.47-1.67C17.22.2 11.68.21 11.37.21c-.3 0-5.84-.01-9.32 1.32A2.43 2.43 0 0 0 .58 3.2 24 24 0 0 0 0 9.1a24 24 0 0 0 .58 5.92 2.43 2.43 0 0 0 1.47 1.66C5.38 17.96 10.6 18 11.3 18h.13c.7 0 5.93-.04 9.26-1.32a2.43 2.43 0 0 0 1.47-1.66 24 24 0 0 0 .58-5.92 24 24 0 0 0-.58-5.9Zm-7.32 6.24L9.98 12.7a.4.4 0 0 1-.64-.34v-6.5a.4.4 0 0 1 .64-.33l4.87 3.25a.4.4 0 0 1 0 .67Z" fill="red"/></svg>